STARTFONT 2.1
COMMENT
COMMENT Converted from OpenType font "BeVietnam-Italic.ttf" by "otf2bdf 3.0".
COMMENT
FONT -FreeType-Be Vietnam-Medium-I-Normal--33-240-100-100-P-170-ISO10646-1
SIZE 24 100 100
FONTBOUNDINGBOX 48 45 -9 -8
STARTPROPERTIES 19
FOUNDRY "FreeType"
FAMILY_NAME "Be Vietnam"
WEIGHT_NAME "Medium"
SLANT "I"
SETWIDTH_NAME "Normal"
ADD_STYLE_NAME ""
PIXEL_SIZE 33
POINT_SIZE 240
RESOLUTION_X 100
RESOLUTION_Y 100
SPACING "P"
AVERAGE_WIDTH 170
CHARSET_REGISTRY "ISO10646"
CHARSET_ENCODING "1"
FONT_ASCENT 39
FONT_DESCENT 8
COPYRIGHT "Copyright 2019 The Bevietnam Project Authors (https://github.com/bettergui/beVietnam)"
_OTF_FONTFILE "BeVietnam-Italic.ttf"
_OTF_PSNAME "BeVietnam-Italic"
ENDPROPERTIES
CHARS 445
STARTCHAR 000D
ENCODING 13
SWIDTH 600 0
DWIDTH 20 0
BBX 0 0 0 0
BITMAP
ENDCHAR
STARTCHAR 0020
ENCODING 32
SWIDTH 210 0
DWIDTH 7 0
BBX 0 0 0 0
BITMAP
ENDCHAR
STARTCHAR 0021
ENCODING 33
SWIDTH 240 0
DWIDTH 8 0
BBX 7 25 3 0
BITMAP
0E
1E
1C
1C
1C
1C
1C
18
38
38
38
38
30
30
30
30
70
60
60
00
00
00
E0
E0
E0
ENDCHAR
STARTCHAR 0022
ENCODING 34
SWIDTH 540 0
DWIDTH 18 0
BBX 11 9 6 16
BITMAP
1020
30E0
4080
C100
C100
E3C0
F3E0
F3C0
6180
ENDCHAR
STARTCHAR 0023
ENCODING 35
SWIDTH 870 0
DWIDTH 29 0
BBX 25 23 4 0
BITMAP
001C0C00
00180C00
00181C00
00381800
00303800
00703800
1FFFFF80
1FFFFF80
00E06000
00C06000
01C0E000
01C0C000
0181C000
03818000
03018000
FFFFFC00
FFFFFC00
06070000
0E070000
0E060000
0C0E0000
1C0C0000
181C0000
ENDCHAR
STARTCHAR 0024
ENCODING 36
SWIDTH 540 0
DWIDTH 18 0
BBX 17 28 3 -3
BITMAP
002000
002000
01FC00
07FE00
0FEF00
1C6780
384380
384380
384380
384000
38C000
3EC000
1FE000
0FFC00
00FE00
008E00
018700
018700
E10700
E10700
E10E00
F11E00
7F7C00
3FF800
1FE000
020000
020000
020000
ENDCHAR
STARTCHAR 0025
ENCODING 37
SWIDTH 810 0
DWIDTH 27 0
BBX 23 24 4 0
BITMAP
0E0000
3F8038
718070
618060
E180C0
C181C0
C18380
E30300
7F0700
3C0E00
000C00
001C00
003800
003000
007000
00E07C
00C0EE
01C186
038186
030386
060306
0E038E
0C019C
1801F8
ENDCHAR
STARTCHAR 0026
ENCODING 38
SWIDTH 630 0
DWIDTH 21 0
BBX 19 24 3 0
BITMAP
003C00
00FF00
01FF80
03C3C0
0781C0
0701C0
0701C0
070000
070000
038000
038000
01C000
0FE0C0
1EF1C0
387380
703F00
E03E00
E01E00
E01E00
E03F00
E07780
F9E380
7FC1C0
3F81E0
ENDCHAR
STARTCHAR 0027
ENCODING 39
SWIDTH 300 0
DWIDTH 10 0
BBX 4 8 5 16
BITMAP
60
F0
F0
70
30
30
60
C0
ENDCHAR
STARTCHAR 0028
ENCODING 40
SWIDTH 450 0
DWIDTH 15 0
BBX 12 33 5 -7
BITMAP
0030
0060
00C0
0180
0380
0700
0E00
0E00
1C00
1C00
3800
3800
7000
7000
7000
F000
E000
E000
E000
E000
E000
E000
E000
E000
E000
6000
7000
7000
3000
3800
1800
0C00
0400
ENDCHAR
STARTCHAR 0029
ENCODING 41
SWIDTH 450 0
DWIDTH 15 0
BBX 12 33 2 -7
BITMAP
0600
0300
0380
0180
01C0
00C0
00E0
00E0
0060
0070
0070
0070
0070
0070
0070
0070
00E0
00E0
00E0
00E0
01C0
01C0
01C0
0380
0380
0700
0600
0E00
1C00
1800
3000
6000
C000
ENDCHAR
STARTCHAR 002A
ENCODING 42
SWIDTH 450 0
DWIDTH 15 0
BBX 12 12 6 14
BITMAP
0300
0300
0300
6230
7AF0
1FC0
0E00
3F80
E5E0
CC40
0C00
0C00
ENDCHAR
STARTCHAR 002B
ENCODING 43
SWIDTH 570 0
DWIDTH 19 0
BBX 13 13 5 4
BITMAP
0380
0380
0300
0300
0700
FFF8
FFF8
FFF8
0600
0600
0E00
0E00
0E00
ENDCHAR
STARTCHAR 002C
ENCODING 44
SWIDTH 270 0
DWIDTH 9 0
BBX 4 8 3 -5
BITMAP
F0
F0
F0
30
30
20
40
80
ENDCHAR
STARTCHAR 002D
ENCODING 45
SWIDTH 600 0
DWIDTH 20 0
BBX 13 3 7 9
BITMAP
7FF8
FFF8
FFF0
ENDCHAR
STARTCHAR 002E
ENCODING 46
SWIDTH 270 0
DWIDTH 9 0
BBX 4 4 3 0
BITMAP
40
F0
F0
E0
ENDCHAR
STARTCHAR 002F
ENCODING 47
SWIDTH 510 0
DWIDTH 17 0
BBX 21 32 1 -5
BITMAP
000038
000030
000070
0000E0
0000E0
0001C0
0001C0
000380
000700
000700
000E00
000E00
001C00
001800
003800
007000
007000
00E000
00C000
01C000
038000
038000
070000
060000
0E0000
1C0000
1C0000
380000
300000
700000
E00000
E00000
ENDCHAR
STARTCHAR 0030
ENCODING 48
SWIDTH 600 0
DWIDTH 20 0
BBX 18 24 3 0
BITMAP
007C00
03FF00
07FF00
0F0780
1E03C0
1C01C0
3801C0
3801C0
7801C0
7001C0
7001C0
7003C0
700380
F00380
E00380
E00380
E00780
E00700
E00F00
F00E00
701E00
7C7C00
3FF800
1FE000
ENDCHAR
STARTCHAR 0031
ENCODING 49
SWIDTH 480 0
DWIDTH 16 0
BBX 12 23 3 0
BITMAP
00E0
03E0
07E0
0FE0
1EE0
18E0
10C0
00C0
01C0
01C0
01C0
01C0
0180
0180
0380
0380
0380
0380
0300
0300
7FF0
FFF0
FFF0
ENDCHAR
STARTCHAR 0032
ENCODING 50
SWIDTH 570 0
DWIDTH 19 0
BBX 18 24 2 0
BITMAP
003E00
01FF80
03FFC0
0783C0
0F01C0
0E00C0
0C00C0
1C00C0
0001C0
0001C0
000380
000700
000F00
001E00
003C00
007000
01E000
03C000
070000
1E0000
3C0000
7FFF00
7FFF00
FFFF00
ENDCHAR
STARTCHAR 0033
ENCODING 51
SWIDTH 570 0
DWIDTH 19 0
BBX 18 24 3 0
BITMAP
00FC00
03FF00
07FF80
0E0380
1C0380
1C01C0
0001C0
000380
000380
000700
001E00
01FC00
01FC00
001E00
000700
000700
000700
000700
E00700
E00E00
F01E00
7C7C00
3FF800
1FE000
ENDCHAR
STARTCHAR 0034
ENCODING 52
SWIDTH 600 0
DWIDTH 20 0
BBX 17 23 3 0
BITMAP
000F00
001F00
003F00
007600
00FE00
00EE00
01CE00
038E00
070E00
0E0C00
1C1C00
1C1C00
381C00
701C00
E01C00
FFFF80
FFFF80
003800
003800
003800
003800
007000
007000
ENDCHAR
STARTCHAR 0035
ENCODING 53
SWIDTH 600 0
DWIDTH 20 0
BBX 17 23 4 0
BITMAP
1FFF80
1FFF00
180000
180000
380000
380000
300000
30E000
77FC00
7F7E00
780E00
700700
000700
000700
000700
000700
000E00
C00E00
E01C00
F03C00
7FF800
7FF000
1FC000
ENDCHAR
STARTCHAR 0036
ENCODING 54
SWIDTH 570 0
DWIDTH 19 0
BBX 16 23 3 0
BITMAP
0038
0070
00E0
01C0
0380
0300
0700
0E00
1CF8
1BFC
3E3E
780F
7007
7007
E007
E007
E007
E007
E00E
F01C
787C
3FF0
1FE0
ENDCHAR
STARTCHAR 0037
ENCODING 55
SWIDTH 510 0
DWIDTH 17 0
BBX 16 23 4 0
BITMAP
7FFF
7FFE
000E
000E
001C
0018
0038
0070
0070
00E0
01C0
01C0
0380
0380
0700
0E00
0E00
1C00
3C00
3800
7000
7000
E000
ENDCHAR
STARTCHAR 0038
ENCODING 56
SWIDTH 600 0
DWIDTH 20 0
BBX 18 24 3 0
BITMAP
007C00
03FF00
07FF80
0F0380
1E01C0
1C01C0
1C01C0
180180
1C0380
1C0700
0E0F00
07FC00
0FFE00
3C0F00
700700
700380
E00380
E00380
E00780
E00700
F00F00
783E00
7FFC00
1FF000
ENDCHAR
STARTCHAR 0039
ENCODING 57
SWIDTH 570 0
DWIDTH 19 0
BBX 17 24 4 0
BITMAP
01F000
07FC00
0FFE00
1C0F00
380700
700380
700380
600380
600300
E00700
700700
700F00
781E00
3FFE00
1FDC00
023800
007000
007000
00E000
01C000
038000
070000
0E0000
1E0000
ENDCHAR
STARTCHAR 003A
ENCODING 58
SWIDTH 270 0
DWIDTH 9 0
BBX 4 17 3 0
BITMAP
E0
F0
E0
00
00
00
00
00
00
00
00
00
00
40
F0
F0
E0
ENDCHAR
STARTCHAR 003B
ENCODING 59
SWIDTH 300 0
DWIDTH 10 0
BBX 6 22 3 -5
BITMAP
1C
1C
1C
00
00
00
00
00
00
00
00
00
00
00
70
F8
F0
30
30
30
60
C0
ENDCHAR
STARTCHAR 003C
ENCODING 60
SWIDTH 540 0
DWIDTH 18 0
BBX 14 14 5 4
BITMAP
000C
0038
00F8
03E0
0F80
3C00
F000
F000
7C00
3E00
0F80
03E0
01E0
0060
ENDCHAR
STARTCHAR 003D
ENCODING 61
SWIDTH 690 0
DWIDTH 23 0
BBX 17 9 5 6
BITMAP
7FFF80
7FFF80
000000
000000
000000
000000
000000
FFFF00
FFFF00
ENDCHAR
STARTCHAR 003E
ENCODING 62
SWIDTH 540 0
DWIDTH 18 0
BBX 14 14 4 4
BITMAP
3000
3C00
3E00
0F80
03E0
00F8
003C
0038
00F0
07C0
1F00
7C00
F000
C000
ENDCHAR
STARTCHAR 003F
ENCODING 63
SWIDTH 570 0
DWIDTH 19 0
BBX 15 24 5 0
BITMAP
03E0
0FF8
3FFC
781E
700E
E00E
E00E
E00E
000E
001C
0038
0078
00E0
01C0
0380
0700
0E00
0E00
0000
0000
0000
1C00
1E00
1C00
ENDCHAR
STARTCHAR 0040
ENCODING 64
SWIDTH 990 0
DWIDTH 33 0
BBX 29 30 4 -6
BITMAP
0003E000
001FFE00
00FFFF80
01E003C0
038001E0
07000070
0E000070
1C000038
380F3038
303FB018
7070F018
60E07018
E0C07018
C0C07018
C1C06018
C1C06038
C1C06030
C1C0E030
C1C1E060
C0E331C0
C0FE3F80
E03C0C00
E0000000
70000000
78000000
3C000000
1F000000
0FFFFC00
03FFFC00
001FF800
ENDCHAR
STARTCHAR 0041
ENCODING 65
SWIDTH 660 0
DWIDTH 22 0
BBX 20 23 1 0
BITMAP
000F00
000F00
001F00
001F00
003B80
003380
007380
006180
00E180
00C1C0
01C1C0
0381C0
0380C0
0700E0
07FFE0
0FFFE0
0E00E0
1C0060
1C0070
380070
300070
700070
E00070
ENDCHAR
STARTCHAR 0042
ENCODING 66
SWIDTH 600 0
DWIDTH 20 0
BBX 18 23 3 0
BITMAP
1FFF00
1FFF80
1C03C0
1C01C0
1800C0
3800C0
3801C0
3801C0
380380
380F00
3FFC00
7FFF00
700780
700380
7001C0
7001C0
6001C0
E00380
E00380
E00700
E07F00
FFFC00
FFF000
ENDCHAR
STARTCHAR 0043
ENCODING 67
SWIDTH 690 0
DWIDTH 23 0
BBX 21 24 4 0
BITMAP
003E00
01FF80
07FFE0
0F81E0
1E00F0
3C0070
380038
700038
700000
E00000
E00000
E00000
E00000
E00000
E00000
E00000
E00000
E000E0
E001C0
F003C0
780780
3F7F00
1FFC00
0FF000
ENDCHAR
STARTCHAR 0044
ENCODING 68
SWIDTH 660 0
DWIDTH 22 0
BBX 21 23 3 0
BITMAP
1FFF00
1FFFC0
1C07E0
1C01E0
1800F0
380070
380078
380038
380038
380038
300038
700070
700070
700070
700070
7000E0
6001E0
E001C0
E00780
E00F00
FFFE00
FFFC00
FFF000
ENDCHAR
STARTCHAR 0045
ENCODING 69
SWIDTH 540 0
DWIDTH 18 0
BBX 18 23 3 0
BITMAP
1FFFC0
1FFFC0
1C0000
1C0000
1C0000
380000
380000
380000
380000
380000
3FFE00
7FFC00
700000
700000
700000
700000
700000
E00000
E00000
E00000
FFFC00
FFFC00
FFFC00
ENDCHAR
STARTCHAR 0046
ENCODING 70
SWIDTH 510 0
DWIDTH 17 0
BBX 17 23 3 0
BITMAP
1FFF80
1FFF80
1C0000
1C0000
1C0000
380000
380000
380000
380000
380000
3FFC00
7FFC00
700000
700000
700000
700000
700000
E00000
E00000
E00000
E00000
E00000
E00000
ENDCHAR
STARTCHAR 0047
ENCODING 71
SWIDTH 690 0
DWIDTH 23 0
BBX 21 24 4 0
BITMAP
007E00
01FF80
07FFC0
0F81E0
1E00F0
3C0070
380070
700038
700000
E00000
E00000
E00000
E01FF0
E03FF0
C00060
C000E0
E000E0
E000E0
E001E0
F003E0
7807C0
7E1EC0
3FFCC0
0FF0C0
ENDCHAR
STARTCHAR 0048
ENCODING 72
SWIDTH 660 0
DWIDTH 22 0
BBX 21 23 3 0
BITMAP
1C0038
1C0038
1C0038
1C0030
1C0070
380070
380070
380070
380070
380060
3FFFE0
7FFFE0
7000E0
7000E0
7000E0
7001C0
6001C0
E001C0
E001C0
E001C0
E001C0
E00380
C00380
ENDCHAR
STARTCHAR 0049
ENCODING 73
SWIDTH 240 0
DWIDTH 8 0
BBX 6 23 3 0
BITMAP
1C
1C
1C
1C
1C
18
38
38
38
38
38
30
70
70
70
70
70
60
E0
E0
E0
E0
E0
ENDCHAR
STARTCHAR 004A
ENCODING 74
SWIDTH 330 0
DWIDTH 11 0
BBX 11 23 2 0
BITMAP
00E0
00C0
01C0
01C0
01C0
01C0
01C0
0380
0380
0380
0380
0380
0380
0700
0700
0700
0700
0700
0600
0E00
1E00
FC00
F800
ENDCHAR
STARTCHAR 004B
ENCODING 75
SWIDTH 600 0
DWIDTH 20 0
BBX 19 23 3 0
BITMAP
1C01E0
1C0380
1C0700
1C0E00
181C00
387800
38F000
39E000
3BC000
3F8000
3F8000
7F8000
79C000
71C000
70E000
70F000
607000
E07800
E03800
E01C00
E01E00
E00E00
C00F00
ENDCHAR
STARTCHAR 004C
ENCODING 76
SWIDTH 510 0
DWIDTH 17 0
BBX 14 23 3 0
BITMAP
1C00
1C00
1C00
1C00
1C00
3800
3800
3800
3800
3800
3800
7000
7000
7000
7000
7000
6000
E000
E000
E000
FFFC
FFFC
FFF8
ENDCHAR
STARTCHAR 004D
ENCODING 77
SWIDTH 810 0
DWIDTH 27 0
BBX 26 23 3 0
BITMAP
1F0007C0
1F0007C0
1F000F80
1F801F80
1F801F80
3B803B80
3B803B80
3B807380
39C07300
39C0E700
31C0E700
71C1C700
71C3C700
70E38700
70E70600
70E70E00
60EE0E00
E07E0E00
E07C0E00
E07C0E00
E0781C00
E0781C00
C0301C00
ENDCHAR
STARTCHAR 004E
ENCODING 78
SWIDTH 690 0
DWIDTH 23 0
BBX 22 23 3 0
BITMAP
1E001C
1F001C
1F001C
1F801C
1F8038
3BC038
39C038
39E038
38E038
38F038
307070
707870
703870
703C70
701C70
701E60
600EE0
E00FE0
E007E0
E007E0
E003E0
E003C0
C001C0
ENDCHAR
STARTCHAR 004F
ENCODING 79
SWIDTH 720 0
DWIDTH 24 0
BBX 22 24 3 0
BITMAP
001F00
00FFC0
03FFF0
07C0F0
0F0078
1E0038
1C003C
38001C
38001C
70001C
70001C
70001C
70001C
70003C
F00038
F00038
700078
700070
7000E0
7801E0
3C03C0
3FBF80
1FFE00
07F800
ENDCHAR
STARTCHAR 0050
ENCODING 80
SWIDTH 570 0
DWIDTH 19 0
BBX 18 23 3 0
BITMAP
1FFE00
1FFF80
1C0F80
1C01C0
1801C0
3801C0
3801C0
3801C0
3801C0
3801C0
300380
700700
7FFF00
7FFC00
7FF000
700000
600000
E00000
E00000
E00000
E00000
E00000
C00000
ENDCHAR
STARTCHAR 0051
ENCODING 81
SWIDTH 720 0
DWIDTH 24 0
BBX 22 26 3 -2
BITMAP
001F00
00FFC0
03FFF0
07C0F0
0F0078
1E0038
1C003C
38001C
38001C
70001C
70001C
70001C
70001C
70003C
F00038
F03038
703878
701C70
701CE0
780FE0
3C07C0
3FBF80
1FFF80
07F980
0001C0
0000E0
ENDCHAR
STARTCHAR 0052
ENCODING 82
SWIDTH 600 0
DWIDTH 20 0
BBX 18 23 3 0
BITMAP
1FFF00
1FFF80
1C07C0
1C01C0
1C01C0
3800C0
3801C0
3801C0
3801C0
380380
300780
7FFF00
7FFC00
7FE000
70F000
707000
607800
E03800
E03C00
E01C00
E01E00
E00E00
C00E00
ENDCHAR
STARTCHAR 0053
ENCODING 83
SWIDTH 570 0
DWIDTH 19 0
BBX 18 24 3 0
BITMAP
00FC00
03FF00
07FF80
0F0780
1C03C0
1C01C0
3801C0
380000
380000
3C0000
1F8000
0FF800
07FE00
003F00
000F00
000780
E00780
E00700
E00700
F00F00
F01E00
7E7C00
3FF800
1FE000
ENDCHAR
STARTCHAR 0054
ENCODING 84
SWIDTH 570 0
DWIDTH 19 0
BBX 17 23 5 0
BITMAP
FFFF80
FFFF80
01C000
01C000
038000
038000
038000
038000
038000
038000
070000
070000
070000
070000
070000
070000
0E0000
0E0000
0E0000
0E0000
0E0000
0C0000
1C0000
ENDCHAR
STARTCHAR 0055
ENCODING 85
SWIDTH 660 0
DWIDTH 22 0
BBX 20 23 4 0
BITMAP
380030
380070
380070
300070
700070
700070
700060
7000E0
6000E0
E000E0
E000E0
E000E0
E000C0
E001C0
E001C0
E001C0
E00380
E00380
E00700
F00F00
7FFE00
3FF800
1FF000
ENDCHAR
STARTCHAR 0056
ENCODING 86
SWIDTH 630 0
DWIDTH 21 0
BBX 19 23 5 0
BITMAP
E000E0
E000E0
E001C0
E001C0
E00380
E00380
700700
700700
700E00
700E00
701C00
301C00
383800
383000
387000
38E000
38E000
19C000
1DC000
1F8000
1F8000
1F0000
1F0000
ENDCHAR
STARTCHAR 0057
ENCODING 87
SWIDTH 990 0
DWIDTH 33 0
BBX 31 23 5 0
BITMAP
C003800E
C007800E
E007801C
E00F801C
E00FC018
E01DC038
E01DC038
E039C070
E039C070
E070C0E0
6070C0E0
60E0E0C0
60E0E1C0
71C0E1C0
71C0E380
7380E380
73806700
77007700
77007600
7E007E00
7E007C00
3C007C00
3C007C00
ENDCHAR
STARTCHAR 0058
ENCODING 88
SWIDTH 630 0
DWIDTH 21 0
BBX 22 23 2 0
BITMAP
0E001C
0E0038
070070
0700E0
0381E0
0381C0
01C380
01C700
00EE00
00FC00
007C00
007800
00F800
01DC00
03DC00
038E00
070E00
0E0700
1C0700
380380
780380
7001C0
E001C0
ENDCHAR
STARTCHAR 0059
ENCODING 89
SWIDTH 600 0
DWIDTH 20 0
BBX 18 23 5 0
BITMAP
F003C0
700380
700700
700F00
380E00
381C00
383C00
1C3800
1C7000
1CF000
0EE000
0FC000
0F8000
078000
070000
070000
070000
070000
0E0000
0E0000
0E0000
0E0000
0E0000
ENDCHAR
STARTCHAR 005A
ENCODING 90
SWIDTH 600 0
DWIDTH 20 0
BBX 20 23 2 0
BITMAP
0FFFF0
1FFFF0
0000F0
0001E0
0003C0
000780
000700
000E00
001C00
003800
007000
00F000
01E000
03C000
078000
0F0000
0E0000
1C0000
380000
700000
FFFF80
FFFF00
FFFF00
ENDCHAR
STARTCHAR 005B
ENCODING 91
SWIDTH 420 0
DWIDTH 14 0
BBX 15 33 2 -6
BITMAP
07FE
07FE
0600
0600
0600
0E00
0E00
0C00
0C00
0C00
0C00
1C00
1C00
1800
1800
1800
1800
3800
3800
3000
3000
3000
3000
7000
7000
6000
6000
6000
E000
E000
C000
FF80
FF80
ENDCHAR
STARTCHAR 005C
ENCODING 92
SWIDTH 510 0
DWIDTH 17 0
BBX 11 32 4 -5
BITMAP
C000
E000
E000
E000
6000
7000
7000
3000
3800
3800
3800
1800
1C00
1C00
1C00
0C00
0E00
0E00
0E00
0600
0700
0700
0700
0300
0380
0380
0180
01C0
01C0
01C0
00C0
00E0
ENDCHAR
STARTCHAR 005D
ENCODING 93
SWIDTH 420 0
DWIDTH 14 0
BBX 16 33 1 -6
BITMAP
03FF
03FE
0006
0006
000E
000E
000C
000C
000C
000C
001C
001C
0018
0018
0018
0018
0038
0038
0030
0030
0030
0070
0070
0060
0060
0060
0060
00E0
00E0
00C0
00C0
7FC0
FFC0
ENDCHAR
STARTCHAR 005E
ENCODING 94
SWIDTH 390 0
DWIDTH 13 0
BBX 12 6 4 19
BITMAP
0780
0FC0
1CC0
38E0
7060
E070
ENDCHAR
STARTCHAR 005F
ENCODING 95
SWIDTH 690 0
DWIDTH 23 0
BBX 16 2 4 0
BITMAP
FFFF
FFFF
ENDCHAR
STARTCHAR 0060
ENCODING 96
SWIDTH 240 0
DWIDTH 8 0
BBX 5 6 6 21
BITMAP
E0
E0
60
70
30
38
ENDCHAR
STARTCHAR 0061
ENCODING 97
SWIDTH 600 0
DWIDTH 20 0
BBX 18 18 3 0
BITMAP
03F1C0
0FF9C0
1FBD80
3C0F80
780780
700780
F00780
E00380
E00700
E00700
E00700
E00700
E00F00
E01F00
F03600
786E00
7FCE00
3F8E00
ENDCHAR
STARTCHAR 0062
ENCODING 98
SWIDTH 600 0
DWIDTH 20 0
BBX 18 25 3 0
BITMAP
0E0000
1C0000
1C0000
1C0000
1C0000
1C0000
1C0000
387C00
39FF00
3BDF80
3E0780
3C0380
3803C0
7801C0
7001C0
7001C0
700380
700380
700380
F00780
F00700
F80E00
EE3E00
EFF800
C3F000
ENDCHAR
STARTCHAR 0063
ENCODING 99
SWIDTH 540 0
DWIDTH 18 0
BBX 16 18 3 0
BITMAP
03F8
0FFC
1FBE
3C0F
3807
7007
6007
E000
E000
E000
E000
E006
E00E
E00E
F01C
7878
3FF0
1FC0
ENDCHAR
STARTCHAR 0064
ENCODING 100
SWIDTH 600 0
DWIDTH 20 0
BBX 19 25 3 0
BITMAP
0000E0
0000E0
0000E0
0000E0
0001C0
0001C0
0001C0
03F1C0
0FF9C0
1FFD80
3C0F80
780780
700780
F00780
E00380
E00700
E00700
E00700
E00700
E00F00
E01F00
F03600
787E00
7FCE00
3F8E00
ENDCHAR
STARTCHAR 0065
ENCODING 101
SWIDTH 540 0
DWIDTH 18 0
BBX 16 18 3 0
BITMAP
03F8
0FFE
1E0F
3807
7007
7007
E007
E01E
FFFC
FFF0
E000
C000
E00E
E00E
F01C
7C78
3FF0
1FC0
ENDCHAR
STARTCHAR 0066
ENCODING 102
SWIDTH 360 0
DWIDTH 12 0
BBX 16 33 -1 -8
BITMAP
0006
003F
007F
0070
00E0
00E0
00E0
03FE
07FE
07FE
01C0
01C0
01C0
01C0
01C0
01C0
0380
0380
0380
0380
0380
0300
0700
0700
0700
0700
0700
0600
0E00
0E00
1E00
FC00
F800
ENDCHAR
STARTCHAR 0067
ENCODING 103
SWIDTH 600 0
DWIDTH 20 0
BBX 18 25 3 -7
BITMAP
03E1C0
0FF9C0
1FBD80
3C0F80
780780
700780
F00380
E00380
E00700
E00700
E00700
E00700
E00F00
F01F00
F83600
7FEE00
3FCE00
060E00
000E00
001C00
001C00
007800
1FF000
1FE000
1F8000
ENDCHAR
STARTCHAR 0068
ENCODING 104
SWIDTH 600 0
DWIDTH 20 0
BBX 17 25 3 0
BITMAP
0E0000
1C0000
1C0000
1C0000
1C0000
1C0000
1C0000
387C00
39FF00
3BFF00
3E0780
3C0380
380380
700380
700380
700380
700380
700300
600700
E00700
E00700
E00700
E00700
E00E00
C00E00
ENDCHAR
STARTCHAR 0069
ENCODING 105
SWIDTH 240 0
DWIDTH 8 0
BBX 7 24 3 1
BITMAP
1E
1E
1C
00
00
00
1C
18
38
38
38
38
38
30
70
70
70
70
70
E0
E0
E0
E0
E0
ENDCHAR
STARTCHAR 006A
ENCODING 106
SWIDTH 240 0
DWIDTH 8 0
BBX 12 32 -2 -7
BITMAP
0020
0070
00F0
0070
0000
0000
0000
00E0
00E0
01C0
01C0
01C0
01C0
01C0
01C0
0380
0380
0380
0380
0380
0380
0700
0700
0700
0700
0700
0700
0E00
0E00
1E00
FC00
F800
ENDCHAR
STARTCHAR 006B
ENCODING 107
SWIDTH 510 0
DWIDTH 17 0
BBX 15 25 3 0
BITMAP
0E00
0E00
1C00
1C00
1C00
1C00
1C00
180E
381C
3838
3870
39E0
3BC0
3780
7E00
7E00
7E00
7700
7780
6380
E1C0
E1E0
E0E0
E070
E078
ENDCHAR
STARTCHAR 006C
ENCODING 108
SWIDTH 300 0
DWIDTH 10 0
BBX 7 25 3 0
BITMAP
0E
0E
1C
1C
1C
1C
1C
18
38
38
38
38
38
30
70
70
70
70
70
60
E0
E0
F0
FC
7C
ENDCHAR
STARTCHAR 006D
ENCODING 109
SWIDTH 930 0
DWIDTH 31 0
BBX 29 18 3 0
BITMAP
38FC07C0
39FE1FE0
3BFF3FF0
3E0F6070
3C07C078
38078038
70038038
70070030
70070070
70070070
70070070
60070070
E0060070
E00E0060
E00E00E0
E00E00E0
E00E00E0
C00E00E0
ENDCHAR
STARTCHAR 006E
ENCODING 110
SWIDTH 600 0
DWIDTH 20 0
BBX 17 18 3 0
BITMAP
387C00
39FF00
3BFF00
3E0780
3C0380
380380
700380
700380
700380
700380
700300
600700
E00700
E00700
E00700
E00700
E00E00
C00E00
ENDCHAR
STARTCHAR 006F
ENCODING 111
SWIDTH 570 0
DWIDTH 19 0
BBX 16 18 3 0
BITMAP
01F8
07FC
1FBE
3C0F
3807
7007
E007
E003
E007
E007
E007
E007
E00E
E01E
F03C
78F8
3FF0
1FC0
ENDCHAR
STARTCHAR 0070
ENCODING 112
SWIDTH 600 0
DWIDTH 20 0
BBX 20 25 1 -7
BITMAP
0E1F00
0E7FC0
0EF7E0
0F81E0
0F00E0
0E00F0
1E0070
1C0070
1C0070
1C00E0
1C00E0
1C00E0
3C01E0
3C01C0
3E0380
3B8F80
3BFE00
31FC00
700000
700000
700000
700000
700000
E00000
E00000
ENDCHAR
STARTCHAR 0071
ENCODING 113
SWIDTH 600 0
DWIDTH 20 0
BBX 18 25 3 -7
BITMAP
03F1C0
0FF9C0
1FFD80
3C0F80
780780
700780
F00780
E00380
E00700
E00700
E00700
E00700
E00F00
E01F00
F03600
787E00
7FCE00
3F8E00
000E00
000E00
001C00
001C00
001C00
001C00
001C00
ENDCHAR
STARTCHAR 0072
ENCODING 114
SWIDTH 330 0
DWIDTH 11 0
BBX 12 18 2 0
BITMAP
1C20
1DF0
1FF0
1F00
1E00
3C00
3800
3800
3800
3800
3800
7000
7000
7000
7000
7000
7000
E000
ENDCHAR
STARTCHAR 0073
ENCODING 115
SWIDTH 480 0
DWIDTH 16 0
BBX 15 18 2 0
BITMAP
03F0
0FFC
1E1C
1C0E
380E
3800
3800
3E00
1FE0
07F8
003C
001C
601C
E01C
7038
7878
3FF0
1FC0
ENDCHAR
STARTCHAR 0074
ENCODING 116
SWIDTH 390 0
DWIDTH 13 0
BBX 10 23 4 0
BITMAP
0E00
0E00
0E00
0E00
1C00
FFC0
FFC0
FFC0
1C00
1C00
3800
3800
3800
3800
3800
3000
7000
7000
7000
7000
7000
7F00
3E00
ENDCHAR
STARTCHAR 0075
ENCODING 117
SWIDTH 600 0
DWIDTH 20 0
BBX 18 18 3 0
BITMAP
3801C0
3801C0
380380
380380
380380
300380
700380
700380
700700
700700
700700
600700
E00F00
F00E00
701E00
7C7E00
3FEE00
1F8E00
ENDCHAR
STARTCHAR 0076
ENCODING 118
SWIDTH 540 0
DWIDTH 18 0
BBX 16 18 4 0
BITMAP
E003
E007
E00E
600E
701C
701C
7038
7038
3070
3870
38E0
38C0
39C0
1980
1F80
1F00
1F00
1E00
ENDCHAR
STARTCHAR 0077
ENCODING 119
SWIDTH 810 0
DWIDTH 27 0
BBX 25 18 4 0
BITMAP
E01C0380
E01C0380
E03C0700
E03C0700
607E0600
607E0E00
60EE0C00
70EE1C00
71CE1C00
71C63800
73863800
73873000
73077000
77076000
3607E000
3E07C000
3C07C000
3C03C000
ENDCHAR
STARTCHAR 0078
ENCODING 120
SWIDTH 540 0
DWIDTH 18 0
BBX 18 18 2 0
BITMAP
3803C0
1C0380
1C0700
0E0E00
0E1C00
073800
073800
03F000
03E000
03E000
07E000
07F000
0E7000
1C7000
383800
703800
F01C00
E01C00
ENDCHAR
STARTCHAR 0079
ENCODING 121
SWIDTH 480 0
DWIDTH 16 0
BBX 19 25 0 -7
BITMAP
1C00E0
1C00E0
0E01C0
0E01C0
0E0380
0E0380
060700
070600
070E00
071C00
071C00
033800
03B000
03F000
03E000
01E000
01C000
01C000
038000
030000
070000
0E0000
BC0000
F80000
F00000
ENDCHAR
STARTCHAR 007A
ENCODING 122
SWIDTH 480 0
DWIDTH 16 0
BBX 16 18 2 0
BITMAP
1FFF
1FFF
1FFF
000E
001C
0038
0070
00E0
01C0
0380
0700
0E00
1C00
3800
7000
E000
FFF8
FFF8
ENDCHAR
STARTCHAR 007B
ENCODING 123
SWIDTH 450 0
DWIDTH 15 0
BBX 13 35 5 -7
BITMAP
00F8
03F8
0380
0700
0600
0600
0600
0E00
0E00
0E00
0E00
0C00
0C00
1C00
1C00
1C00
1800
F000
F800
3800
3800
3800
3800
3000
3000
7000
7000
7000
7000
6000
6000
6000
6000
7F00
3E00
ENDCHAR
STARTCHAR 007C
ENCODING 124
SWIDTH 270 0
DWIDTH 9 0
BBX 9 40 2 -8
BITMAP
0180
0180
0180
0380
0380
0380
0300
0300
0300
0700
0700
0700
0600
0600
0600
0E00
0E00
0E00
0C00
0C00
0C00
1C00
1C00
1C00
1800
1800
1800
3800
3800
3000
3000
3000
3000
7000
7000
6000
6000
6000
E000
E000
ENDCHAR
STARTCHAR 007D
ENCODING 125
SWIDTH 450 0
DWIDTH 15 0
BBX 13 35 3 -7
BITMAP
03C0
03F0
0070
0030
0030
0030
0030
0070
0070
0070
0060
0060
0060
00E0
00E0
00E0
00E0
0078
00F0
01C0
01C0
0180
0180
0180
0380
0380
0380
0300
0300
0300
0700
0700
0E00
FE00
F800
ENDCHAR
STARTCHAR 007E
ENCODING 126
SWIDTH 540 0
DWIDTH 18 0
BBX 13 4 5 11
BITMAP
0818
3E38
7FF0
C1E0
ENDCHAR
STARTCHAR 00A0
ENCODING 160
SWIDTH 210 0
DWIDTH 7 0
BBX 0 0 0 0
BITMAP
ENDCHAR
STARTCHAR 00A1
ENCODING 161
SWIDTH 240 0
DWIDTH 8 0
BBX 7 25 3 -8
BITMAP
0E
1E
1E
04
00
00
18
18
18
18
38
38
30
30
30
70
70
70
70
70
E0
E0
E0
E0
E0
ENDCHAR
STARTCHAR 00A2
ENCODING 162
SWIDTH 600 0
DWIDTH 20 0
BBX 17 22 3 -2
BITMAP
006000
006000
01F800
07FE00
0FFE00
1C4700
38C700
708380
708380
708000
E08000
E08000
E18000
E10700
E10600
E10E00
711C00
7D7800
3FF000
1FE000
020000
020000
ENDCHAR
STARTCHAR 00A3
ENCODING 163
SWIDTH 570 0
DWIDTH 19 0
BBX 18 24 2 0
BITMAP
007C00
01FF80
03FF80
0783C0
0F01C0
0E01C0
1E01C0
1E01C0
1E0000
0E0000
0F0000
0F0000
070000
3FFC00
7FFC00
038000
038000
030000
070000
0E0000
1C0000
FFFF80
FFFF00
FFFF00
ENDCHAR
STARTCHAR 00A4
ENCODING 164
SWIDTH 570 0
DWIDTH 19 0
BBX 17 16 3 4
BITMAP
080000
39FB80
1FFF00
0F1E00
1C0700
180700
300300
300300
300300
700700
300600
380E00
3C3C00
7FFE00
EFEE00
400400
ENDCHAR
STARTCHAR 00A5
ENCODING 165
SWIDTH 600 0
DWIDTH 20 0
BBX 18 23 5 0
BITMAP
F003C0
700380
700700
700F00
380E00
381C00
383C00
1C3800
1C7000
1CF000
0EE000
0FC000
0F8000
FFF800
FFF800
070000
070000
FFF000
FFF000
0E0000
0E0000
0E0000
0E0000
ENDCHAR
STARTCHAR 00A6
ENCODING 166
SWIDTH 270 0
DWIDTH 9 0
BBX 9 40 2 -8
BITMAP
0180
0180
0180
0380
0380
0380
0300
0300
0300
0700
0700
0700
0600
0600
0600
0E00
0E00
0E00
0000
0000
0000
0000
0000
1800
1800
1800
1800
3800
3800
3000
3000
3000
3000
7000
7000
6000
6000
6000
E000
E000
ENDCHAR
STARTCHAR 00A7
ENCODING 167
SWIDTH 540 0
DWIDTH 18 0
BBX 16 24 3 0
BITMAP
00F0
07FC
0FBE
1C0F
1C07
1C00
1C00
1FC0
1FF8
3CFE
700F
7007
7007
700E
7F0E
1FFC
07F8
003C
001C
E01C
E038
F878
7FF0
1FC0
ENDCHAR
STARTCHAR 00A8
ENCODING 168
SWIDTH 360 0
DWIDTH 12 0
BBX 10 4 5 21
BITMAP
0080
F1C0
F3C0
E1C0
ENDCHAR
STARTCHAR 00A9
ENCODING 169
SWIDTH 810 0
DWIDTH 27 0
BBX 25 24 3 0
BITMAP
000F8000
007FF000
01F07C00
03801E00
0E000600
1C0F0700
183FC300
30E0E300
31C06180
61806180
63000180
63000180
C3000180
C3000300
C3006300
C300C300
E381C600
61FF8E00
60FE0C00
70003800
38007000
1E01E000
0FFFC000
03FE0000
ENDCHAR
STARTCHAR 00AA
ENCODING 170
SWIDTH 150 0
DWIDTH 5 0
BBX 5 5 3 13
BITMAP
78
D8
90
90
F0
ENDCHAR
STARTCHAR 00AB
ENCODING 171
SWIDTH 630 0
DWIDTH 21 0
BBX 20 14 3 4
BITMAP
00E070
01C0E0
0381C0
070380
1C0E00
381C00
703800
E07000
703800
381C00
3C1E00
1C0E00
0E0700
070380
ENDCHAR
STARTCHAR 00AC
ENCODING 172
SWIDTH 630 0
DWIDTH 21 0
BBX 17 9 5 9
BITMAP
7FFF80
FFFF80
FFFF80
000380
000300
000300
000300
000300
000700
ENDCHAR
STARTCHAR 00AD
ENCODING 173
SWIDTH 600 0
DWIDTH 20 0
BBX 13 3 7 9
BITMAP
7FF8
FFF8
FFF0
ENDCHAR
STARTCHAR 00AE
ENCODING 174
SWIDTH 330 0
DWIDTH 11 0
BBX 8 8 5 15
BITMAP
3E
41
9D
A5
B9
AA
C6
78
ENDCHAR
STARTCHAR 00AF
ENCODING 175
SWIDTH 360 0
DWIDTH 12 0
BBX 10 2 5 21
BITMAP
FFC0
FFC0
ENDCHAR
STARTCHAR 00B0
ENCODING 176
SWIDTH 300 0
DWIDTH 10 0
BBX 7 6 6 22
BITMAP
38
7C
C6
C6
CC
78
ENDCHAR
STARTCHAR 00B1
ENCODING 177
SWIDTH 600 0
DWIDTH 20 0
BBX 15 18 4 0
BITMAP
00C0
00C0
00C0
01C0
01C0
3FFE
3FFE
7FFE
0180
0380
0380
0380
0300
0000
0000
0000
FFF8
FFF8
ENDCHAR
STARTCHAR 00B2
ENCODING 178
SWIDTH 300 0
DWIDTH 10 0
BBX 10 12 3 13
BITMAP
0F80
19C0
30C0
30C0
0180
0180
0300
0E00
1800
3000
E000
FF80
ENDCHAR
STARTCHAR 00B3
ENCODING 179
SWIDTH 300 0
DWIDTH 10 0
BBX 9 13 4 12
BITMAP
1F00
3380
6180
0180
0180
1F00
1F00
0300
0100
C300
E700
FE00
3800
ENDCHAR
STARTCHAR 00B4
ENCODING 180
SWIDTH 240 0
DWIDTH 8 0
BBX 7 6 5 21
BITMAP
0E
1C
38
30
60
E0
ENDCHAR
STARTCHAR 00B5
ENCODING 181
SWIDTH 630 0
DWIDTH 21 0
BBX 20 25 1 -7
BITMAP
0E00E0
0E01C0
0E01C0
0E01C0
0C01C0
1C01C0
1C01C0
1C0380
1C0380
1C0380
180380
380380
380700
380700
3C0F00
3E3F80
7FF3F0
77C3E0
700000
700000
700000
700000
E00000
E00000
E00000
ENDCHAR
STARTCHAR 00B6
ENCODING 182
SWIDTH 510 0
DWIDTH 17 0
BBX 15 23 4 0
BITMAP
0FFE
3FFE
7FE6
FFC6
FFC6
FFC4
FFCC
FFCC
FFCC
FF8C
7F8C
0F98
0198
0198
0198
0318
0318
0330
0330
0330
0330
0630
0630
ENDCHAR
STARTCHAR 00B7
ENCODING 183
SWIDTH 270 0
DWIDTH 9 0
BBX 4 4 5 10
BITMAP
70
F0
F0
60
ENDCHAR
STARTCHAR 00B8
ENCODING 184
SWIDTH 240 0
DWIDTH 8 0
BBX 6 8 0 -8
BITMAP
30
60
7C
0C
04
0C
DC
F8
ENDCHAR
STARTCHAR 00B9
ENCODING 185
SWIDTH 240 0
DWIDTH 8 0
BBX 7 12 3 13
BITMAP
0C
3C
3C
4C
0C
0C
08
08
18
18
FE
FE
ENDCHAR
STARTCHAR 00BA
ENCODING 186
SWIDTH 150 0
DWIDTH 5 0
BBX 5 5 3 13
BITMAP
30
D8
98
90
F0
ENDCHAR
STARTCHAR 00BB
ENCODING 187
SWIDTH 630 0
DWIDTH 21 0
BBX 20 14 2 4
BITMAP
381C00
1C0E00
0E0700
070380
070380
0381C0
01C0E0
00E070
03C1E0
070380
0E0700
1C0E00
381C00
F07800
ENDCHAR
STARTCHAR 00BC
ENCODING 188
SWIDTH 810 0
DWIDTH 27 0
BBX 23 23 3 0
BITMAP
0E000E
3C001C
3C0038
2C0070
0C0060
0C00E0
0C01C0
180380
180300
7E0700
FE0E00
001C0E
00180E
00301E
007036
00E06E
01C0CC
01808C
03810C
0701FE
0E000C
0C001C
1C0018
ENDCHAR
STARTCHAR 00BD
ENCODING 189
SWIDTH 840 0
DWIDTH 28 0
BBX 25 23 3 0
BITMAP
0E000F00
3C000C00
3C001C00
2C003800
0C007000
0C006000
0C00E000
1801C000
18038000
7E030000
FE060000
000E0F00
001C3F80
00383180
00306180
00700180
00E00300
01C00600
01801C00
03803800
07007000
0E00FF00
0C00FF00
ENDCHAR
STARTCHAR 00BE
ENCODING 190
SWIDTH 840 0
DWIDTH 28 0
BBX 23 23 4 0
BITMAP
1F000C
3B801C
618038
018070
030060
0E00E0
0701C0
030380
C30300
E70700
FE0E00
381C06
00180E
00301E
007036
00E066
01C04C
01808C
03818C
0701FE
0E000C
0C000C
1C0018
ENDCHAR
STARTCHAR 00BF
ENCODING 191
SWIDTH 510 0
DWIDTH 17 0
BBX 15 24 3 -8
BITMAP
0070
0070
00F0
0060
0000
0000
0000
00E0
01C0
01C0
0780
0F00
1C00
3800
7000
E000
E000
E00E
E00E
E01C
F03C
FDF8
7FF0
1FC0
ENDCHAR
STARTCHAR 00C0
ENCODING 192
SWIDTH 660 0
DWIDTH 22 0
BBX 20 32 1 0
BITMAP
003C00
001C00
000C00
000E00
000600
000600
000000
000000
000000
000F00
000F00
001F00
001F00
003B80
003380
007380
006180
00E180
00C1C0
01C1C0
0381C0
0380C0
0700E0
07FFE0
0FFFE0
0E00E0
1C0060
1C0070
380070
300070
700070
E00070
ENDCHAR
STARTCHAR 00C1
ENCODING 193
SWIDTH 660 0
DWIDTH 22 0
BBX 21 32 1 0
BITMAP
000038
000070
0000E0
0000C0
000180
000380
000000
000000
000000
000F00
000F00
001F00
001F00
003B80
003380
007380
006180
00E180
00C1C0
01C1C0
0381C0
0380C0
0700E0
07FFE0
0FFFE0
0E00E0
1C0060
1C0070
380070
300070
700070
E00070
ENDCHAR
STARTCHAR 00C2
ENCODING 194
SWIDTH 660 0
DWIDTH 22 0
BBX 20 30 1 0
BITMAP
000780
000FC0
001CE0
003870
000000
000000
000000
000F00
000F00
001F00
001F00
003B80
003380
007380
006180
00E180
00C1C0
01C1C0
0381C0
0380C0
0700E0
07FFE0
0FFFE0
0E00E0
1C0060
1C0070
380070
300070
700070
E00070
ENDCHAR
STARTCHAR 00C3
ENCODING 195
SWIDTH 660 0
DWIDTH 22 0
BBX 21 30 1 0
BITMAP
001E18
003FF0
0031E0
000000
000000
000000
000000
000F00
000F00
001F00
001F00
003B80
003380
007380
006180
00E180
00C1C0
01C1C0
0381C0
0380C0
0700E0
07FFE0
0FFFE0
0E00E0
1C0060
1C0070
380070
300070
700070
E00070
ENDCHAR
STARTCHAR 00C4
ENCODING 196
SWIDTH 660 0
DWIDTH 22 0
BBX 20 30 1 0
BITMAP
001C70
003C70
003870
000000
000000
000000
000000
000F00
000F00
001F00
001F00
003B80
003380
007380
006180
00E180
00C1C0
01C1C0
0381C0
0380C0
0700E0
07FFE0
0FFFE0
0E00E0
1C0060
1C0070
380070
300070
700070
E00070
ENDCHAR
STARTCHAR 00C5
ENCODING 197
SWIDTH 660 0
DWIDTH 22 0
BBX 20 32 1 0
BITMAP
000380
0006C0
000C40
000C40
000780
000700
000000
000000
000000
000F00
000F00
001F00
001F00
003B80
003380
007380
006180
00E180
00C1C0
01C1C0
0381C0
0380C0
0700E0
07FFE0
0FFFE0
0E00E0
1C0060
1C0070
380070
300070
700070
E00070
ENDCHAR
STARTCHAR 00C6
ENCODING 198
SWIDTH 930 0
DWIDTH 31 0
BBX 33 23 1 0
BITMAP
0000FFFF80
0001FFFF00
0003B80000
0007B80000
0007300000
000E700000
001E700000
001C700000
0038700000
0070700000
00F0FFFC00
00E0FFF800
01C0E00000
03C0E00000
03FFE00000
07FFE00000
0E00C00000
0E01C00000
1C01C00000
3801C00000
7801FFF800
7001FFF800
E003FFF800
ENDCHAR
STARTCHAR 00C7
ENCODING 199
SWIDTH 690 0
DWIDTH 23 0
BBX 21 32 4 -8
BITMAP
003E00
01FF80
07FFE0
0F81E0
1E00F0
3C0070
380038
700038
700000
E00000
E00000
E00000
E00000
E00000
E00000
E00000
E00000
E000E0
E001C0
F003C0
780780
3F7F00
1FFC00
0FF000
018000
018000
03E000
003000
003000
003000
03E000
03C000
ENDCHAR
STARTCHAR 00C8
ENCODING 200
SWIDTH 540 0
DWIDTH 18 0
BBX 18 32 3 0
BITMAP
01C000
01C000
00E000
00E000
006000
007000
000000
000000
000000
1FFFC0
1FFFC0
1C0000
1C0000
1C0000
380000
380000
380000
380000
380000
3FFE00
7FFC00
700000
700000
700000
700000
700000
E00000
E00000
E00000
FFFC00
FFFC00
FFFC00
ENDCHAR
STARTCHAR 00C9
ENCODING 201
SWIDTH 540 0
DWIDTH 18 0
BBX 18 32 3 0
BITMAP
000380
000700
000600
000E00
001C00
001800
002000
000000
000000
1FFFC0
1FFFC0
1C0000
1C0000
1C0000
380000
380000
380000
380000
380000
3FFE00
7FFC00
700000
700000
700000
700000
700000
E00000
E00000
E00000
FFFC00
FFFC00
FFFC00
ENDCHAR
STARTCHAR 00CA
ENCODING 202
SWIDTH 540 0
DWIDTH 18 0
BBX 18 30 3 0
BITMAP
003C00
006C00
01CE00
038700
000000
000000
000000
1FFFC0
1FFFC0
1C0000
1C0000
1C0000
380000
380000
380000
380000
380000
3FFE00
7FFC00
700000
700000
700000
700000
700000
E00000
E00000
E00000
FFFC00
FFFC00
FFFC00
ENDCHAR
STARTCHAR 00CB
ENCODING 203
SWIDTH 540 0
DWIDTH 18 0
BBX 18 30 3 0
BITMAP
01C780
03C780
03C700
000000
000000
000000
000000
1FFFC0
1FFFC0
1C0000
1C0000
1C0000
380000
380000
380000
380000
380000
3FFE00
7FFC00
700000
700000
700000
700000
700000
E00000
E00000
E00000
FFFC00
FFFC00
FFFC00
ENDCHAR
STARTCHAR 00CC
ENCODING 204
SWIDTH 240 0
DWIDTH 8 0
BBX 6 32 3 0
BITMAP
70
38
38
18
1C
0C
00
00
00
1C
1C
1C
1C
1C
18
38
38
38
38
38
30
70
70
70
70
70
60
E0
E0
E0
E0
E0
ENDCHAR
STARTCHAR 00CD
ENCODING 205
SWIDTH 240 0
DWIDTH 8 0
BBX 12 32 3 0
BITMAP
0070
00E0
01C0
0380
0300
0600
0000
0000
0000
1C00
1C00
1C00
1C00
1C00
1800
3800
3800
3800
3800
3800
3000
7000
7000
7000
7000
7000
6000
E000
E000
E000
E000
E000
ENDCHAR
STARTCHAR 00CE
ENCODING 206
SWIDTH 240 0
DWIDTH 8 0
BBX 11 30 3 0
BITMAP
0F00
1F80
39C0
71C0
8020
0000
0000
1C00
1C00
1C00
1C00
1C00
1800
3800
3800
3800
3800
3800
3000
7000
7000
7000
7000
7000
6000
E000
E000
E000
E000
E000
ENDCHAR
STARTCHAR 00CF
ENCODING 207
SWIDTH 240 0
DWIDTH 8 0
BBX 11 30 3 0
BITMAP
70E0
79E0
71E0
0000
0000
0000
0000
1C00
1C00
1C00
1C00
1C00
1800
3800
3800
3800
3800
3800
3000
7000
7000
7000
7000
7000
6000
E000
E000
E000
E000
E000
ENDCHAR
STARTCHAR 00D0
ENCODING 208
SWIDTH 690 0
DWIDTH 23 0
BBX 22 23 3 0
BITMAP
0FFF80
0FFFC0
0E07F0
0E00F0
0C0078
1C0038
1C0038
1C003C
1C001C
1C001C
7FC03C
FFC038
380038
380038
380038
300070
3000F0
7001E0
7003C0
700F80
7FFF00
7FFC00
FFF000
ENDCHAR
STARTCHAR 00D1
ENCODING 209
SWIDTH 690 0
DWIDTH 23 0
BBX 22 30 3 0
BITMAP
003C60
007FE0
00C7C0
000000
000000
000000
000000
1E001C
1F001C
1F001C
1F801C
1F8038
3BC038
39C038
39E038
38E038
38F038
307070
707870
703870
703C70
701C70
701E60
600EE0
E00FE0
E007E0
E007E0
E003E0
E003C0
C001C0
ENDCHAR
STARTCHAR 00D2
ENCODING 210
SWIDTH 720 0
DWIDTH 24 0
BBX 22 32 3 0
BITMAP
007800
003800
003800
001C00
001C00
000C00
000000
000000
001F00
00FFC0
03FFF0
07C0F0
0F0078
1E0038
1C003C
38001C
38001C
70001C
70001C
70001C
70001C
70003C
F00038
F00038
700078
700070
7000E0
7801E0
3C03C0
3FBF80
1FFE00
07F800
ENDCHAR
STARTCHAR 00D3
ENCODING 211
SWIDTH 720 0
DWIDTH 24 0
BBX 22 32 3 0
BITMAP
000070
0000E0
0001C0
000180
000300
000700
000000
000000
001F00
00FFC0
03FFF0
07C0F0
0F0078
1E0038
1C003C
38001C
38001C
70001C
70001C
70001C
70001C
70003C
F00038
F00038
700078
700070
7000E0
7801E0
3C03C0
3FBF80
1FFE00
07F800
ENDCHAR
STARTCHAR 00D4
ENCODING 212
SWIDTH 720 0
DWIDTH 24 0
BBX 22 30 3 0
BITMAP
000F00
001F80
0039C0
0070E0
000000
000000
001F00
00FFC0
03FFF0
07C0F0
0F0078
1E0038
1C003C
38001C
38001C
70001C
70001C
70001C
70001C
70003C
F00038
F00038
700078
700070
7000E0
7801E0
3C03C0
3FBF80
1FFE00
07F800
ENDCHAR
STARTCHAR 00D5
ENCODING 213
SWIDTH 720 0
DWIDTH 24 0
BBX 22 30 3 0
BITMAP
003C30
007FE0
0063C0
000000
000000
000000
001F00
00FFC0
03FFF0
07C0F0
0F0078
1E0038
1C003C
38001C
38001C
70001C
70001C
70001C
70001C
70003C
F00038
F00038
700078
700070
7000E0
7801E0
3C03C0
3FBF80
1FFE00
07F800
ENDCHAR
STARTCHAR 00D6
ENCODING 214
SWIDTH 720 0
DWIDTH 24 0
BBX 22 30 3 0
BITMAP
0078E0
0078E0
0070E0
000000
000000
000000
001F00
00FFC0
03FFF0
07C0F0
0F0078
1E0038
1C003C
38001C
38001C
70001C
70001C
70001C
70001C
70003C
F00038
F00038
700078
700070
7000E0
7801E0
3C03C0
3FBF80
1FFE00
07F800
ENDCHAR
STARTCHAR 00D7
ENCODING 215
SWIDTH 540 0
DWIDTH 18 0
BBX 12 11 5 5
BITMAP
1020
7070
38E0
3DC0
1F80
0F00
1F80
3F80
71C0
E1E0
40C0
ENDCHAR
STARTCHAR 00D8
ENCODING 216
SWIDTH 720 0
DWIDTH 24 0
BBX 23 26 3 -1
BITMAP
00000E
001F0C
00FFDC
03FFF8
07C0F8
0F00F8
1E00FC
1C019C
3C039C
38071C
780E1C
701C1C
70181C
70381C
70701C
70E038
71C038
718078
738070
7700F0
7E01E0
3C03C0
1FBF80
3FFE00
77FC00
E00000
ENDCHAR
STARTCHAR 00D9
ENCODING 217
SWIDTH 660 0
DWIDTH 22 0
BBX 20 32 4 0
BITMAP
00E000
00E000
006000
007000
003000
003800
000000
000000
000000
380030
380070
380070
300070
700070
700070
700060
7000E0
6000E0
E000E0
E000E0
E000E0
E000C0
E001C0
E001C0
E001C0
E00380
E00380
E00700
F00F00
7FFE00
3FF800
1FF000
ENDCHAR
STARTCHAR 00DA
ENCODING 218
SWIDTH 660 0
DWIDTH 22 0
BBX 20 32 4 0
BITMAP
0001C0
000380
000700
000600
000E00
001C00
000000
000000
000000
380030
380070
380070
300070
700070
700070
700060
7000E0
6000E0
E000E0
E000E0
E000E0
E000C0
E001C0
E001C0
E001C0
E00380
E00380
E00700
F00F00
7FFE00
3FF800
1FF000
ENDCHAR
STARTCHAR 00DB
ENCODING 219
SWIDTH 660 0
DWIDTH 22 0
BBX 20 30 4 0
BITMAP
003E00
007E00
00E700
01C380
000000
000000
000000
380030
380070
380070
300070
700070
700070
700060
7000E0
6000E0
E000E0
E000E0
E000E0
E000C0
E001C0
E001C0
E001C0
E00380
E00380
E00700
F00F00
7FFE00
3FF800
1FF000
ENDCHAR
STARTCHAR 00DC
ENCODING 220
SWIDTH 660 0
DWIDTH 22 0
BBX 20 30 4 0
BITMAP
00E380
01E3C0
01E380
000000
000000
000000
000000
380030
380070
380070
300070
700070
700070
700060
7000E0
6000E0
E000E0
E000E0
E000E0
E000C0
E001C0
E001C0
E001C0
E00380
E00380
E00700
F00F00
7FFE00
3FF800
1FF000
ENDCHAR
STARTCHAR 00DD
ENCODING 221
SWIDTH 600 0
DWIDTH 20 0
BBX 18 32 5 0
BITMAP
000700
000E00
001C00
003800
003000
006000
000000
000000
000000
F003C0
700380
700700
700F00
380E00
381C00
383C00
1C3800
1C7000
1CF000
0EE000
0FC000
0F8000
078000
070000
070000
070000
070000
0E0000
0E0000
0E0000
0E0000
0E0000
ENDCHAR
STARTCHAR 00DE
ENCODING 222
SWIDTH 570 0
DWIDTH 19 0
BBX 18 23 3 0
BITMAP
1C0000
1C0000
1C0000
1C0000
1FFE00
3FFF00
380F80
380380
380380
3801C0
3001C0
700180
700380
700380
700700
700F00
7FFE00
FFFC00
FFE000
E00000
E00000
E00000
C00000
ENDCHAR
STARTCHAR 00DF
ENCODING 223
SWIDTH 540 0
DWIDTH 18 0
BBX 17 24 3 0
BITMAP
00F800
03FE00
07FF00
0E0700
1C0380
1C0380
380380
380300
380700
380E00
39FC00
33F000
73FC00
701E00
700E00
700600
700600
600600
E00E00
E00E00
E01C00
E07800
E7F000
C7E000
ENDCHAR
STARTCHAR 00E0
ENCODING 224
SWIDTH 600 0
DWIDTH 20 0
BBX 18 26 3 0
BITMAP
038000
01C000
01C000
00C000
00E000
006000
000000
000000
03F1C0
0FF9C0
1FBD80
3C0F80
780780
700780
F00780
E00380
E00700
E00700
E00700
E00700
E00F00
E01F00
F03600
786E00
7FCE00
3F8E00
ENDCHAR
STARTCHAR 00E1
ENCODING 225
SWIDTH 600 0
DWIDTH 20 0
BBX 18 26 3 0
BITMAP
000700
000600
000E00
001C00
003800
003000
000000
000000
03F1C0
0FF9C0
1FBD80
3C0F80
780780
700780
F00780
E00380
E00700
E00700
E00700
E00700
E00F00
E01F00
F03600
786E00
7FCE00
3F8E00
ENDCHAR
STARTCHAR 00E2
ENCODING 226
SWIDTH 600 0
DWIDTH 20 0
BBX 18 25 3 0
BITMAP
003000
007800
00DC00
018E00
070600
000000
000000
03F1C0
0FF9C0
1FBD80
3C0F80
780780
700780
F00780
E00380
E00700
E00700
E00700
E00700
E00F00
E01F00
F03600
786E00
7FCE00
3F8E00
ENDCHAR
STARTCHAR 00E3
ENCODING 227
SWIDTH 600 0
DWIDTH 20 0
BBX 18 24 3 0
BITMAP
01F300
03FF00
061C00
000000
000000
000000
03F1C0
0FF9C0
1FBD80
3C0F80
780780
700780
F00780
E00380
E00700
E00700
E00700
E00700
E00F00
E01F00
F03600
786E00
7FCE00
3F8E00
ENDCHAR
STARTCHAR 00E4
ENCODING 228
SWIDTH 600 0
DWIDTH 20 0
BBX 18 25 3 0
BITMAP
000200
038700
038F00
038E00
000000
000000
000000
03F1C0
0FF9C0
1FBD80
3C0F80
780780
700780
F00780
E00380
E00700
E00700
E00700
E00700
E00F00
E01F00
F03600
786E00
7FCE00
3F8E00
ENDCHAR
STARTCHAR 00E5
ENCODING 229
SWIDTH 600 0
DWIDTH 20 0
BBX 18 26 3 0
BITMAP
007800
00CC00
008C00
008C00
00F800
002000
000000
000000
03F1C0
0FF9C0
1FBD80
3C0F80
780780
700780
F00780
E00380
E00700
E00700
E00700
E00700
E00F00
E01F00
F03600
786E00
7FCE00
3F8E00
ENDCHAR
STARTCHAR 00E6
ENCODING 230
SWIDTH 930 0
DWIDTH 31 0
BBX 29 18 2 0
BITMAP
01F80FC0
07FC3FE0
0FBE7CF0
1C06E038
1C07C038
38038038
00038018
00070018
07FFFFF8
1FFFFFF8
38070000
70070000
600F0000
E00F0070
F01B80E0
7873C3C0
7FE1FF80
3F80FE00
ENDCHAR
STARTCHAR 00E7
ENCODING 231
SWIDTH 540 0
DWIDTH 18 0
BBX 16 26 3 -8
BITMAP
03F8
0FFC
1FBE
3C0F
3807
7007
6007
E000
E000
E000
E000
E006
E00E
E00C
F01C
7878
3FF0
1FC0
0200
0600
07C0
00C0
0040
00C0
0F80
0F00
ENDCHAR
STARTCHAR 00E8
ENCODING 232
SWIDTH 540 0
DWIDTH 18 0
BBX 16 26 3 0
BITMAP
0380
01C0
01C0
00C0
00E0
0060
0000
0000
03F8
0FFE
1E0F
3807
7007
7007
E007
E01E
FFFC
FFF0
E000
C000
E00E
E00E
F01C
7C78
3FF0
1FC0
ENDCHAR
STARTCHAR 00E9
ENCODING 233
SWIDTH 540 0
DWIDTH 18 0
BBX 16 26 3 0
BITMAP
0007
0006
000E
001C
0038
0030
0000
0000
03F8
0FFE
1E0F
3807
7007
7007
E007
E01E
FFFC
FFF0
E000
C000
E00E
E00E
F01C
7C78
3FF0
1FC0
ENDCHAR
STARTCHAR 00EA
ENCODING 234
SWIDTH 540 0
DWIDTH 18 0
BBX 16 25 3 0
BITMAP
0038
0078
00FC
018E
0306
0400
0000
03F8
0FFE
1E0F
3807
7007
7007
E007
E01E
FFFC
FFF0
E000
C000
E00E
E00E
F01C
7C78
3FF0
1FC0
ENDCHAR
STARTCHAR 00EB
ENCODING 235
SWIDTH 540 0
DWIDTH 18 0
BBX 16 25 3 0
BITMAP
0002
0387
038F
0386
0000
0000
0000
03F8
0FFE
1E0F
3807
7007
7007
E007
E01E
FFFC
FFF0
E000
C000
E00E
E00E
F01C
7C78
3FF0
1FC0
ENDCHAR
STARTCHAR 00EC
ENCODING 236
SWIDTH 240 0
DWIDTH 8 0
BBX 6 26 3 0
BITMAP
F0
70
30
38
18
18
00
00
1C
18
38
38
38
38
38
30
70
70
70
70
70
E0
E0
E0
E0
E0
ENDCHAR
STARTCHAR 00ED
ENCODING 237
SWIDTH 240 0
DWIDTH 8 0
BBX 11 26 3 0
BITMAP
01E0
01C0
0380
0700
0600
0C00
0000
0000
1C00
1800
3800
3800
3800
3800
3800
3000
7000
7000
7000
7000
7000
E000
E000
E000
E000
E000
ENDCHAR
STARTCHAR 00EE
ENCODING 238
SWIDTH 240 0
DWIDTH 8 0
BBX 11 25 2 0
BITMAP
0700
0F00
1F80
39C0
70E0
8000
0000
0E00
0C00
1C00
1C00
1C00
1C00
1C00
1800
3800
3800
3800
3800
3800
7000
7000
7000
7000
7000
ENDCHAR
STARTCHAR 00EF
ENCODING 239
SWIDTH 240 0
DWIDTH 8 0
BBX 10 25 3 0
BITMAP
0080
F1C0
F3C0
E1C0
0000
0000
0000
1C00
1800
3800
3800
3800
3800
3800
3000
7000
7000
7000
7000
7000
E000
E000
E000
E000
E000
ENDCHAR
STARTCHAR 00F0
ENCODING 240
SWIDTH 600 0
DWIDTH 20 0
BBX 18 26 3 0
BITMAP
007840
00FDC0
001F80
001F00
007F80
002380
000380
0001C0
03F1C0
0FF9C0
1FBD80
3C0D80
780780
700780
F00380
E00380
E00300
E00700
E00700
E00700
E00E00
E01E00
F03C00
787800
3FF000
1FC000
ENDCHAR
STARTCHAR 00F1
ENCODING 241
SWIDTH 600 0
DWIDTH 20 0
BBX 17 24 3 0
BITMAP
01F300
03FF00
031E00
000000
000000
000000
387C00
39FF00
3BFF00
3E0780
3C0380
380380
700380
700380
700380
700380
700300
600700
E00700
E00700
E00700
E00700
E00E00
C00E00
ENDCHAR
STARTCHAR 00F2
ENCODING 242
SWIDTH 570 0
DWIDTH 19 0
BBX 16 26 3 0
BITMAP
0380
0380
01C0
01C0
00C0
00E0
0000
0000
01F8
07FC
1FBE
3C0F
3807
7007
E007
E003
E007
E007
E007
E007
E00E
E01E
F03C
78F8
3FF0
1FC0
ENDCHAR
STARTCHAR 00F3
ENCODING 243
SWIDTH 570 0
DWIDTH 19 0
BBX 16 26 3 0
BITMAP
0007
000E
001C
0018
0030
0070
0000
0000
01F8
07FC
1FBE
3C0F
3807
7007
E007
E003
E007
E007
E007
E007
E00E
E01E
F03C
78F8
3FF0
1FC0
ENDCHAR
STARTCHAR 00F4
ENCODING 244
SWIDTH 570 0
DWIDTH 19 0
BBX 16 25 3 0
BITMAP
0070
00F8
01DC
039C
070E
0000
0000
01F8
07FC
1FBE
3C0F
3807
7007
E007
E003
E007
E007
E007
E007
E00E
E01E
F03C
78F8
3FF0
1FC0
ENDCHAR
STARTCHAR 00F5
ENCODING 245
SWIDTH 570 0
DWIDTH 19 0
BBX 16 24 3 0
BITMAP
03E3
07FE
063C
0000
0000
0000
01F8
07FC
1FBE
3C0F
3807
7007
E007
E003
E007
E007
E007
E007
E00E
E01E
F03C
78F8
3FF0
1FC0
ENDCHAR
STARTCHAR 00F6
ENCODING 246
SWIDTH 570 0
DWIDTH 19 0
BBX 16 25 3 0
BITMAP
0100
038F
078F
030E
0000
0000
0000
01F8
07FC
1FBE
3C0F
3807
7007
E007
E003
E007
E007
E007
E007
E00E
E01E
F03C
78F8
3FF0
1FC0
ENDCHAR
STARTCHAR 00F7
ENCODING 247
SWIDTH 600 0
DWIDTH 20 0
BBX 14 15 4 3
BITMAP
0E00
1E00
0E00
0000
0000
0000
FFFC
FFF8
FFF8
0000
0000
0000
0F00
0F00
0E00
ENDCHAR
STARTCHAR 00F8
ENCODING 248
SWIDTH 570 0
DWIDTH 19 0
BBX 17 20 3 -1
BITMAP
000380
01FF00
0FFE00
1FBE00
3C1F00
381F00
703700
E06700
E0E300
E0C700
E18700
E30700
E70700
E60E00
EC1E00
FC3C00
7CF800
3FF000
7FC000
E00000
ENDCHAR
STARTCHAR 00F9
ENCODING 249
SWIDTH 600 0
DWIDTH 20 0
BBX 18 26 3 0
BITMAP
038000
038000
01C000
01C000
00C000
00E000
000000
000000
3801C0
3801C0
380380
380380
380380
300380
700380
700380
700700
700700
700700
600700
E00F00
F00E00
701E00
7C7E00
3FEE00
1F8E00
ENDCHAR
STARTCHAR 00FA
ENCODING 250
SWIDTH 600 0
DWIDTH 20 0
BBX 18 26 3 0
BITMAP
000700
000E00
001C00
001800
003800
007000
000000
000000
3801C0
3801C0
380380
380380
380380
300380
700380
700380
700700
700700
700700
600700
E00F00
F00E00
701E00
7C7E00
3FEE00
1F8E00
ENDCHAR
STARTCHAR 00FB
ENCODING 251
SWIDTH 600 0
DWIDTH 20 0
BBX 18 25 3 0
BITMAP
007000
00F800
01DC00
039C00
070E00
000000
000000
3801C0
3801C0
380380
380380
380380
300380
700380
700380
700700
700700
700700
600700
E00F00
F00E00
701E00
7C7E00
3FEE00
1F8E00
ENDCHAR
STARTCHAR 00FC
ENCODING 252
SWIDTH 600 0
DWIDTH 20 0
BBX 18 25 3 0
BITMAP
010200
038F00
078F00
030E00
000000
000000
000000
3801C0
3801C0
380380
380380
380380
300380
700380
700380
700700
700700
700700
600700
E00F00
F00E00
701E00
7C7E00
3FEE00
1F8E00
ENDCHAR
STARTCHAR 00FD
ENCODING 253
SWIDTH 480 0
DWIDTH 16 0
BBX 19 33 0 -7
BITMAP
0001C0
000380
000700
000E00
000C00
001800
000000
000000
1C00E0
1C00E0
0E01C0
0E01C0
0E0380
0E0380
060700
070600
070E00
071C00
071C00
033800
03B000
03F000
03E000
01E000
01C000
01C000
038000
030000
070000
0E0000
BC0000
F80000
F00000
ENDCHAR
STARTCHAR 00FE
ENCODING 254
SWIDTH 600 0
DWIDTH 20 0
BBX 20 33 1 -8
BITMAP
038000
070000
070000
070000
070000
070000
070000
0E1F00
0E7FC0
0EF7E0
0F81E0
0F00E0
0E00F0
1E0070
1C0070
1C0070
1C00E0
1C00E0
1C00E0
3C01E0
3C01C0
3E0380
3B8F80
3BFE00
31FC00
700000
700000
700000
700000
700000
600000
E00000
E00000
ENDCHAR
STARTCHAR 00FF
ENCODING 255
SWIDTH 480 0
DWIDTH 16 0
BBX 19 32 0 -7
BITMAP
000100
01E380
01E380
01C380
000000
000000
000000
1C00E0
1C00E0
0E01C0
0E01C0
0E0380
0E0380
060700
070600
070E00
071C00
071C00
033800
03B000
03F000
03E000
01E000
01C000
01C000
038000
030000
070000
0E0000
BC0000
F80000
F00000
ENDCHAR
STARTCHAR 0100
ENCODING 256
SWIDTH 660 0
DWIDTH 22 0
BBX 20 28 1 0
BITMAP
003FF0
000000
000000
000000
000000
000F00
000F00
001F00
001F00
003B80
003380
007380
006180
00E180
00C1C0
01C1C0
0381C0
0380C0
0700E0
07FFE0
0FFFE0
0E00E0
1C0060
1C0070
380070
300070
700070
E00070
ENDCHAR
STARTCHAR 0101
ENCODING 257
SWIDTH 600 0
DWIDTH 20 0
BBX 18 22 3 0
BITMAP
03FF00
000000
000000
000000
03F1C0
0FF9C0
1FBD80
3C0F80
780780
700780
F00780
E00380
E00700
E00700
E00700
E00700
E00F00
E01F00
F03600
786E00
7FCE00
3F8E00
ENDCHAR
STARTCHAR 0102
ENCODING 258
SWIDTH 660 0
DWIDTH 22 0
BBX 21 30 1 0
BITMAP
003038
003870
001FE0
000F80
000000
000000
000000
000F00
000F00
001F00
001F00
003B80
003380
007380
006180
00E180
00C1C0
01C1C0
0381C0
0380C0
0700E0
07FFE0
0FFFE0
0E00E0
1C0060
1C0070
380070
300070
700070
E00070
ENDCHAR
STARTCHAR 0103
ENCODING 259
SWIDTH 600 0
DWIDTH 20 0
BBX 18 24 3 0
BITMAP
070300
038700
01FC00
00F000
000000
000000
03F1C0
0FF9C0
1FBD80
3C0F80
780780
700780
F00780
E00380
E00700
E00700
E00700
E00700
E00F00
E01F00
F03600
786E00
7FCE00
3F8E00
ENDCHAR
STARTCHAR 0104
ENCODING 260
SWIDTH 660 0
DWIDTH 22 0
BBX 20 28 1 -5
BITMAP
000F00
000F00
001F00
001F00
003B80
003380
007380
006180
00E180
00C1C0
01C1C0
0381C0
0380C0
0700E0
07FFE0
0FFFE0
0E00E0
1C0060
1C0070
380070
300070
700070
E00070
000060
0000C0
0000C0
0000E0
0000F0
ENDCHAR
STARTCHAR 0105
ENCODING 261
SWIDTH 600 0
DWIDTH 20 0
BBX 18 23 3 -5
BITMAP
03F1C0
0FF9C0
1FBD80
3C0F80
780780
700780
F00780
E00380
E00700
E00700
E00700
E00700
E00F00
E01F00
F03600
786E00
7FCE00
3F8E00
000C00
001800
003800
003800
001E00
ENDCHAR
STARTCHAR 0106
ENCODING 262
SWIDTH 690 0
DWIDTH 23 0
BBX 21 32 4 0
BITMAP
0001C0
0001C0
000380
000700
000600
000C00
000000
000000
003E00
01FF80
07FFE0
0F81E0
1E00F0
3C0070
380038
700038
700000
E00000
E00000
E00000
E00000
E00000
E00000
E00000
E00000
E000E0
E001C0
F003C0
780780
3F7F00
1FFC00
0FF000
ENDCHAR
STARTCHAR 0107
ENCODING 263
SWIDTH 540 0
DWIDTH 18 0
BBX 16 26 3 0
BITMAP
0007
000E
001C
0018
0038
0070
0000
0000
03F8
0FFC
1FBE
3C0F
3807
7007
6007
E000
E000
E000
E000
E006
E00E
E00E
F01C
7878
3FF0
1FC0
ENDCHAR
STARTCHAR 010A
ENCODING 266
SWIDTH 690 0
DWIDTH 23 0
BBX 21 30 4 0
BITMAP
001E00
001E00
001C00
000000
000000
000000
003E00
01FF80
07FFE0
0F81E0
1E00F0
3C0070
380038
700038
700000
E00000
E00000
E00000
E00000
E00000
E00000
E00000
E00000
E000E0
E001C0
F003C0
780780
3F7F00
1FFC00
0FF000
ENDCHAR
STARTCHAR 010B
ENCODING 267
SWIDTH 540 0
DWIDTH 18 0
BBX 16 25 3 0
BITMAP
0020
0070
00F0
0070
0000
0000
0000
03F8
0FFC
1FBE
3C0F
3807
7007
6007
E000
E000
E000
E000
E006
E00E
E00E
F01C
7878
3FF0
1FC0
ENDCHAR
STARTCHAR 010C
ENCODING 268
SWIDTH 690 0
DWIDTH 23 0
BBX 21 30 4 0
BITMAP
00E1C0
007380
003700
003E00
000000
000000
003E00
01FF80
07FFE0
0F81E0
1E00F0
3C0070
380038
700038
700000
E00000
E00000
E00000
E00000
E00000
E00000
E00000
E00000
E000E0
E001C0
F003C0
780780
3F7F00
1FFC00
0FF000
ENDCHAR
STARTCHAR 010D
ENCODING 269
SWIDTH 540 0
DWIDTH 18 0
BBX 16 25 3 0
BITMAP
0707
038E
01DC
01F8
00F0
0000
0000
03F8
0FFC
1FBE
3C0F
3807
7007
6007
E000
E000
E000
E000
E006
E00E
E00E
F01C
7878
3FF0
1FC0
ENDCHAR
STARTCHAR 010E
ENCODING 270
SWIDTH 660 0
DWIDTH 22 0
BBX 21 30 3 0
BITMAP
00E1C0
007380
003F00
003E00
000000
000000
000000
1FFF00
1FFFC0
1C07E0
1C01E0
1800F0
380070
380078
380038
380038
380038
300038
700070
700070
700070
700070
7000E0
6001E0
E001C0
E00780
E00F00
FFFE00
FFFC00
FFF000
ENDCHAR
STARTCHAR 010F
ENCODING 271
SWIDTH 720 0
DWIDTH 24 0
BBX 25 26 3 0
BITMAP
00000780
0000E780
0000E780
0000E380
0000E180
0001C100
0001C300
0001CC00
03F1C800
0FF9C000
1FFD8000
3C0F8000
78078000
70078000
F0078000
E0038000
E0070000
E0070000
E0070000
E0070000
E00F0000
E01F0000
F0360000
787E0000
7FCE0000
3F8E0000
ENDCHAR
STARTCHAR 0110
ENCODING 272
SWIDTH 690 0
DWIDTH 23 0
BBX 22 23 3 0
BITMAP
0FFF80
0FFFC0
0E07F0
0E00F0
0C0078
1C0038
1C0038
1C003C
1C001C
1C001C
7FC03C
FFC038
380038
380038
380038
300070
3000F0
7001E0
7003C0
700F80
7FFF00
7FFC00
FFF000
ENDCHAR
STARTCHAR 0111
ENCODING 273
SWIDTH 630 0
DWIDTH 21 0
BBX 21 25 3 0
BITMAP
0000E0
0000E0
0000E0
001FF8
001FF8
0001C0
0001C0
03F1C0
0FF9C0
1FFDC0
3C0F80
780780
700780
F00780
E00380
E00700
E00700
E00700
E00700
E00F00
E01F00
F03600
787E00
7FCE00
3F8E00
ENDCHAR
STARTCHAR 0112
ENCODING 274
SWIDTH 540 0
DWIDTH 18 0
BBX 18 28 3 0
BITMAP
03FF00
000000
000000
000000
000000
1FFFC0
1FFFC0
1C0000
1C0000
1C0000
380000
380000
380000
380000
380000
3FFE00
7FFC00
700000
700000
700000
700000
700000
E00000
E00000
E00000
FFFC00
FFFC00
FFFC00
ENDCHAR
STARTCHAR 0113
ENCODING 275
SWIDTH 540 0
DWIDTH 18 0
BBX 16 22 3 0
BITMAP
03FF
0000
0000
0000
03F8
0FFE
1E0F
3807
7007
7007
E007
E01E
FFFC
FFF0
E000
C000
E00E
E00E
F01C
7C78
3FF0
1FC0
ENDCHAR
STARTCHAR 0116
ENCODING 278
SWIDTH 540 0
DWIDTH 18 0
BBX 18 30 3 0
BITMAP
003800
003800
003800
000000
000000
000000
000000
1FFFC0
1FFFC0
1C0000
1C0000
1C0000
380000
380000
380000
380000
380000
3FFE00
7FFC00
700000
700000
700000
700000
700000
E00000
E00000
E00000
FFFC00
FFFC00
FFFC00
ENDCHAR
STARTCHAR 0117
ENCODING 279
SWIDTH 540 0
DWIDTH 18 0
BBX 16 24 3 1
BITMAP
0078
0078
0070
0000
0000
0000
03F8
0FFE
1E0F
3807
7007
7007
E007
E01E
FFFC
FFF0
E000
C000
E00E
E00E
F01C
7C78
3FF0
1FC0
ENDCHAR
STARTCHAR 0118
ENCODING 280
SWIDTH 540 0
DWIDTH 18 0
BBX 18 28 3 -5
BITMAP
1FFFC0
1FFFC0
1C0000
1C0000
1C0000
380000
380000
380000
380000
380000
3FFE00
7FFC00
700000
700000
700000
700000
700000
E00000
E00000
E00000
FFFC00
FFFC00
FFFC00
001800
003000
003000
003000
003C00
ENDCHAR
STARTCHAR 0119
ENCODING 281
SWIDTH 540 0
DWIDTH 18 0
BBX 16 23 3 -6
BITMAP
03F8
0FFE
1E0F
3807
7007
7007
E007
E01E
FFFC
FFF0
E000
C000
E00E
E00E
F01C
7C78
3FF0
0FC0
0380
0700
0600
0700
07C0
ENDCHAR
STARTCHAR 011A
ENCODING 282
SWIDTH 540 0
DWIDTH 18 0
BBX 18 30 3 0
BITMAP
01C380
00CE00
00FC00
007800
000000
000000
000000
1FFFC0
1FFFC0
1C0000
1C0000
1C0000
380000
380000
380000
380000
380000
3FFE00
7FFC00
700000
700000
700000
700000
700000
E00000
E00000
E00000
FFFC00
FFFC00
FFFC00
ENDCHAR
STARTCHAR 011B
ENCODING 283
SWIDTH 540 0
DWIDTH 18 0
BBX 17 25 3 0
BITMAP
030380
038700
01CC00
00F800
007000
000000
000000
03F800
0FFE00
1E0F00
380700
700700
700700
E00700
E01E00
FFFC00
FFF000
E00000
C00000
E00E00
E00E00
F01C00
7C7800
3FF000
1FC000
ENDCHAR
STARTCHAR 011E
ENCODING 286
SWIDTH 690 0
DWIDTH 23 0
BBX 21 30 4 0
BITMAP
00C0E0
00E1C0
007F80
003E00
000000
000000
007E00
01FF80
07FFC0
0F81E0
1E00F0
3C0070
380070
700038
700000
E00000
E00000
E00000
E01FF0
E03FF0
C00060
C000E0
E000E0
E000E0
E001E0
F003E0
7807C0
7E1EC0
3FFCC0
0FF0C0
ENDCHAR
STARTCHAR 011F
ENCODING 287
SWIDTH 600 0
DWIDTH 20 0
BBX 18 31 3 -7
BITMAP
070300
038600
01FC00
00F000
000000
000000
03E1C0
0FF9C0
1FBD80
3C0F80
780780
700780
F00380
E00380
E00700
E00700
E00700
E00700
E00F00
F01F00
F83600
7FEE00
3FCE00
060E00
000E00
001C00
001C00
007800
1FF000
1FE000
1F8000
ENDCHAR
STARTCHAR 0120
ENCODING 288
SWIDTH 690 0
DWIDTH 23 0
BBX 21 30 4 0
BITMAP
000E00
001E00
001C00
000000
000000
000000
007E00
01FF80
07FFC0
0F81E0
1E00F0
3C0070
380070
700038
700000
E00000
E00000
E00000
E01FF0
E03FF0
C00060
C000E0
E000E0
E000E0
E001E0
F003E0
7807C0
7E1EC0
3FFCC0
0FF0C0
ENDCHAR
STARTCHAR 0121
ENCODING 289
SWIDTH 600 0
DWIDTH 20 0
BBX 18 31 3 -6
BITMAP
007000
007000
007000
000000
000000
000000
03E1C0
0FF9C0
1FBD80
3C0F80
780780
700780
F00380
E00380
E00700
E00700
E00700
E00700
E00F00
F01F00
F83600
7FEE00
3FCE00
060E00
000E00
001C00
001C00
007800
1FF000
1FE000
1F8000
ENDCHAR
STARTCHAR 0126
ENCODING 294
SWIDTH 690 0
DWIDTH 23 0
BBX 22 23 3 0
BITMAP
0C0038
1C0038
1C0038
1C0038
7FFFFC
7FFFFC
380070
380070
380070
380070
3FFFF0
3FFFE0
7000E0
7000E0
7000E0
7000E0
7000E0
7001C0
E001C0
E001C0
E001C0
E001C0
E00180
ENDCHAR
STARTCHAR 0127
ENCODING 295
SWIDTH 600 0
DWIDTH 20 0
BBX 17 25 3 0
BITMAP
0E0000
0E0000
0C0000
7FE000
7FE000
1C0000
1C0000
1C7E00
18FF00
3BFF80
3A0380
3C0380
380380
380380
380380
700380
700380
700380
700380
700700
600700
E00700
E00700
E00700
E00600
ENDCHAR
STARTCHAR 0128
ENCODING 296
SWIDTH 240 0
DWIDTH 8 0
BBX 11 30 3 0
BITMAP
3C60
7FE0
E3C0
0000
0000
0000
0000
1C00
1C00
1C00
1C00
1C00
1800
3800
3800
3800
3800
3800
3000
7000
7000
7000
7000
7000
6000
E000
E000
E000
E000
E000
ENDCHAR
STARTCHAR 0129
ENCODING 297
SWIDTH 240 0
DWIDTH 8 0
BBX 10 24 3 0
BITMAP
7CC0
FFC0
8780
0000
0000
0000
1C00
1800
3800
3800
3800
3800
3800
3000
7000
7000
7000
7000
7000
E000
E000
E000
E000
E000
ENDCHAR
STARTCHAR 012A
ENCODING 298
SWIDTH 240 0
DWIDTH 8 0
BBX 11 28 3 0
BITMAP
7FE0
0000
0000
0000
0000
1C00
1C00
1C00
1C00
1C00
1800
3800
3800
3800
3800
3800
3000
7000
7000
7000
7000
7000
6000
E000
E000
E000
E000
E000
ENDCHAR
STARTCHAR 012B
ENCODING 299
SWIDTH 240 0
DWIDTH 8 0
BBX 10 22 3 0
BITMAP
FFC0
0000
0000
0000
1C00
1800
3800
3800
3800
3800
3800
3000
7000
7000
7000
7000
7000
E000
E000
E000
E000
E000
ENDCHAR
STARTCHAR 012E
ENCODING 302
SWIDTH 240 0
DWIDTH 8 0
BBX 8 28 1 -5
BITMAP
07
07
07
07
07
06
0E
0E
0E
0E
0E
0C
1C
1C
1C
1C
1C
18
38
38
38
38
38
70
E0
C0
E0
78
ENDCHAR
STARTCHAR 012F
ENCODING 303
SWIDTH 240 0
DWIDTH 8 0
BBX 9 29 1 -4
BITMAP
0780
0780
0700
0000
0000
0000
0700
0600
0E00
0E00
0E00
0E00
0E00
0C00
1C00
1C00
1C00
1C00
1C00
3800
3800
3800
3800
3800
7000
6000
C000
E000
7800
ENDCHAR
STARTCHAR 0130
ENCODING 304
SWIDTH 240 0
DWIDTH 8 0
BBX 8 30 3 0
BITMAP
07
0F
0E
00
00
00
00
1C
1C
1C
1C
1C
18
38
38
38
38
38
30
70
70
70
70
70
60
E0
E0
E0
E0
E0
ENDCHAR
STARTCHAR 0131
ENCODING 305
SWIDTH 240 0
DWIDTH 8 0
BBX 6 18 3 0
BITMAP
1C
18
38
38
38
38
38
30
70
70
70
70
70
E0
E0
E0
E0
E0
ENDCHAR
STARTCHAR 0139
ENCODING 313
SWIDTH 510 0
DWIDTH 17 0
BBX 14 32 3 0
BITMAP
00E0
00E0
01C0
0380
0300
0600
0000
0000
0000
1C00
1C00
1C00
1C00
1C00
3800
3800
3800
3800
3800
3800
7000
7000
7000
7000
7000
6000
E000
E000
E000
FFFC
FFFC
FFF8
ENDCHAR
STARTCHAR 013A
ENCODING 314
SWIDTH 300 0
DWIDTH 10 0
BBX 11 33 3 0
BITMAP
00E0
00C0
01C0
0380
0700
0600
0000
0000
0E00
0E00
1C00
1C00
1C00
1C00
1C00
1800
3800
3800
3800
3800
3800
3000
7000
7000
7000
7000
7000
6000
E000
E000
F000
FC00
7C00
ENDCHAR
STARTCHAR 013D
ENCODING 317
SWIDTH 510 0
DWIDTH 17 0
BBX 14 30 3 0
BITMAP
70E0
39C0
1B80
1F00
0000
0000
0000
1C00
1C00
1C00
1C00
1C00
3800
3800
3800
3800
3800
3800
7000
7000
7000
7000
7000
6000
E000
E000
E000
FFFC
FFFC
FFF8
ENDCHAR
STARTCHAR 013E
ENCODING 318
SWIDTH 330 0
DWIDTH 11 0
BBX 9 26 3 0
BITMAP
0700
0F80
0F80
1F00
1D00
1F00
1E00
1C00
1800
3800
3800
3800
3800
3800
3000
7000
7000
7000
7000
7000
6000
E000
E000
F000
FC00
7C00
ENDCHAR
STARTCHAR 0143
ENCODING 323
SWIDTH 690 0
DWIDTH 23 0
BBX 22 32 3 0
BITMAP
0000E0
0000E0
0001C0
000380
000700
000600
000000
000000
000000
1E001C
1F001C
1F001C
1F801C
1F8038
3BC038
39C038
39E038
38E038
38F038
307070
707870
703870
703C70
701C70
701E60
600EE0
E00FE0
E007E0
E007E0
E003E0
E003C0
C001C0
ENDCHAR
STARTCHAR 0144
ENCODING 324
SWIDTH 600 0
DWIDTH 20 0
BBX 17 26 3 0
BITMAP
000380
000700
000E00
001C00
001800
003000
000000
000000
387C00
39FF00
3BFF00
3E0780
3C0380
380380
700380
700380
700380
700380
700300
600700
E00700
E00700
E00700
E00700
E00E00
C00E00
ENDCHAR
STARTCHAR 0147
ENCODING 327
SWIDTH 690 0
DWIDTH 23 0
BBX 22 30 3 0
BITMAP
0070E0
0039C0
001B80
001F00
000000
000000
000000
1E001C
1F001C
1F001C
1F801C
1F8038
3BC038
39C038
39E038
38E038
38F038
307070
707870
703870
703C70
701C70
701E60
600EE0
E00FE0
E007E0
E007E0
E003E0
E003C0
C001C0
ENDCHAR
STARTCHAR 0148
ENCODING 328
SWIDTH 600 0
DWIDTH 20 0
BBX 17 25 3 0
BITMAP
038380
018700
01CE00
00FC00
007800
000000
000000
387C00
39FF00
3BFF00
3E0780
3C0380
380380
700380
700380
700380
700380
700300
600700
E00700
E00700
E00700
E00700
E00E00
C00E00
ENDCHAR
STARTCHAR 014C
ENCODING 332
SWIDTH 720 0
DWIDTH 24 0
BBX 22 28 3 0
BITMAP
007FE0
000000
000000
000000
001F00
00FFC0
03FFF0
07C0F0
0F0078
1E0038
1C003C
38001C
38001C
70001C
70001C
70001C
70001C
70003C
F00038
F00038
700078
700070
7000E0
7801E0
3C03C0
3FBF80
1FFE00
07F800
ENDCHAR
STARTCHAR 014D
ENCODING 333
SWIDTH 570 0
DWIDTH 19 0
BBX 16 22 3 0
BITMAP
07FE
0000
0000
0000
01F8
07FC
1FBE
3C0F
3807
7007
E007
E003
E007
E007
E007
E007
E00E
E01E
F03C
78F8
3FF0
1FC0
ENDCHAR
STARTCHAR 0152
ENCODING 338
SWIDTH 960 0
DWIDTH 32 0
BBX 31 23 3 0
BITMAP
007FFFFE
01FFFFFE
07E0E000
0F00E000
1E00E000
1C00E000
3801C000
7801C000
7001C000
7001C000
7001FFF0
E001FFF0
E0038000
E0038000
E0038000
E0038000
F0038000
70030000
78070000
3C070000
3FFFFFE0
1FFFFFE0
03FFFFE0
ENDCHAR
STARTCHAR 0153
ENCODING 339
SWIDTH 960 0
DWIDTH 32 0
BBX 30 18 3 0
BITMAP
01F807E0
07FC1FF0
0FBE3C78
1C0F7038
3807E01C
7003C01C
7003801C
6003801C
E003FFFC
E003FFFC
E0078000
E0078000
E00F8000
E00F8030
701DC070
7879E1E0
3FF0FFC0
1FC07F00
ENDCHAR
STARTCHAR 0154
ENCODING 340
SWIDTH 600 0
DWIDTH 20 0
BBX 18 32 3 0
BITMAP
000380
000700
000600
000C00
001C00
003800
000000
000000
000000
1FFF00
1FFF80
1C07C0
1C01C0
1C01C0
3800C0
3801C0
3801C0
3801C0
380380
300780
7FFF00
7FFC00
7FE000
70F000
707000
607800
E03800
E03C00
E01C00
E01E00
E00E00
C00E00
ENDCHAR
STARTCHAR 0155
ENCODING 341
SWIDTH 330 0
DWIDTH 11 0
BBX 13 26 2 0
BITMAP
0038
0030
0070
00E0
01C0
0180
0000
0000
1C20
1DF0
1FF0
1F00
1E00
3C00
3800
3800
3800
3800
3800
7000
7000
7000
7000
7000
7000
E000
ENDCHAR
STARTCHAR 0158
ENCODING 344
SWIDTH 600 0
DWIDTH 20 0
BBX 18 30 3 0
BITMAP
01C780
01CE00
00FC00
007800
000000
000000
000000
1FFF00
1FFF80
1C07C0
1C01C0
1C01C0
3800C0
3801C0
3801C0
3801C0
380380
300780
7FFF00
7FFC00
7FE000
70F000
707000
607800
E03800
E03C00
E01C00
E01E00
E00E00
C00E00
ENDCHAR
STARTCHAR 0159
ENCODING 345
SWIDTH 330 0
DWIDTH 11 0
BBX 14 25 2 0
BITMAP
1C1C
1C38
0E70
07C0
0380
0000
0000
1C20
1DF0
1FF0
1F00
1E00
3C00
3800
3800
3800
3800
3800
7000
7000
7000
7000
7000
7000
E000
ENDCHAR
STARTCHAR 015A
ENCODING 346
SWIDTH 570 0
DWIDTH 19 0
BBX 18 32 3 0
BITMAP
0001C0
000380
000300
000700
000E00
001C00
000000
000000
00FC00
03FF00
07FF80
0F0780
1C03C0
1C01C0
3801C0
380000
380000
3C0000
1F8000
0FF800
07FE00
003F00
000F00
000780
E00780
E00700
E00700
F00F00
F01E00
7E7C00
3FF800
1FE000
ENDCHAR
STARTCHAR 015B
ENCODING 347
SWIDTH 480 0
DWIDTH 16 0
BBX 16 26 2 0
BITMAP
0007
000E
001C
0038
0030
0060
0000
0000
03F0
0FFC
1E1C
1C0E
380E
3800
3800
3E00
1FE0
07F8
003C
001C
601C
E01C
7038
7878
3FF0
1FC0
ENDCHAR
STARTCHAR 015E
ENCODING 350
SWIDTH 570 0
DWIDTH 19 0
BBX 18 32 3 -8
BITMAP
00FC00
03FF00
07FF80
0F0780
1C03C0
1C01C0
3801C0
380000
380000
3C0000
1F8000
0FF800
07FE00
003F00
000F00
000780
E00780
E00700
E00700
F00F00
F01E00
7E7C00
3FF800
1FE000
030000
060000
07C000
00C000
006000
004000
0DC000
0F8000
ENDCHAR
STARTCHAR 015F
ENCODING 351
SWIDTH 480 0
DWIDTH 16 0
BBX 15 26 2 -8
BITMAP
03F0
0FFC
1E1C
1C0E
380E
3800
3800
3E00
1FE0
07F8
003C
001C
601C
E01C
7038
7878
3FF0
1FC0
0200
0600
0780
01C0
0040
00C0
0F80
0F00
ENDCHAR
STARTCHAR 0160
ENCODING 352
SWIDTH 570 0
DWIDTH 19 0
BBX 18 30 3 0
BITMAP
00E3C0
00E700
007E00
003C00
000000
000000
00FC00
03FF00
07FF80
0F0780
1C03C0
1C01C0
3801C0
380000
380000
3C0000
1F8000
0FF800
07FE00
003F00
000F00
000780
E00780
E00700
E00700
F00F00
F01E00
7E7C00
3FF800
1FE000
ENDCHAR
STARTCHAR 0161
ENCODING 353
SWIDTH 480 0
DWIDTH 16 0
BBX 16 25 2 0
BITMAP
0707
038E
01DC
00F8
00F0
0000
0000
03F0
0FFC
1E1C
1C0E
380E
3800
3800
3E00
1FE0
07F8
003C
001C
601C
E01C
7038
7878
3FF0
1FC0
ENDCHAR
STARTCHAR 0162
ENCODING 354
SWIDTH 570 0
DWIDTH 19 0
BBX 17 31 5 -8
BITMAP
FFFF80
FFFF80
01C000
01C000
038000
038000
038000
038000
038000
038000
070000
070000
070000
070000
070000
070000
0E0000
0E0000
0E0000
0E0000
0E0000
0C0000
1C0000
180000
180000
3E0000
070000
030000
030000
2E0000
3C0000
ENDCHAR
STARTCHAR 0163
ENCODING 355
SWIDTH 390 0
DWIDTH 13 0
BBX 10 31 4 -8
BITMAP
0E00
0E00
0E00
0E00
1C00
FFC0
FFC0
FFC0
1C00
1C00
3800
3800
3800
3800
3800
3000
7000
7000
7000
7000
7000
7F00
3E00
1000
3000
3E00
0600
0200
0600
7C00
7800
ENDCHAR
STARTCHAR 0164
ENCODING 356
SWIDTH 570 0
DWIDTH 19 0
BBX 17 30 5 0
BITMAP
070E00
039C00
03B800
01E000
000000
000000
000000
FFFF80
FFFF80
01C000
01C000
038000
038000
038000
038000
038000
038000
070000
070000
070000
070000
070000
070000
0E0000
0E0000
0E0000
0E0000
0E0000
0C0000
1C0000
ENDCHAR
STARTCHAR 0165
ENCODING 357
SWIDTH 480 0
DWIDTH 16 0
BBX 12 26 4 0
BITMAP
0070
00F0
00F0
0E70
0E30
0E20
0E60
1CC0
FFC0
FFC0
FFC0
1C00
1C00
3800
3800
3800
3800
3800
3000
7000
7000
7000
7000
7000
7F00
3E00
ENDCHAR
STARTCHAR 0166
ENCODING 358
SWIDTH 570 0
DWIDTH 19 0
BBX 17 23 5 0
BITMAP
FFFF80
FFFF80
01C000
01C000
018000
038000
038000
038000
038000
FFFC00
FFFC00
070000
070000
070000
070000
070000
0E0000
0E0000
0E0000
0E0000
0E0000
0C0000
1C0000
ENDCHAR
STARTCHAR 0167
ENCODING 359
SWIDTH 390 0
DWIDTH 13 0
BBX 11 23 3 0
BITMAP
0700
0700
0700
0700
0E00
7FE0
7FE0
7FE0
0E00
0E00
1C00
1C00
FFC0
FFC0
1C00
1C00
3800
3800
3800
3800
3800
3F80
1F80
ENDCHAR
STARTCHAR 0168
ENCODING 360
SWIDTH 660 0
DWIDTH 22 0
BBX 20 30 4 0
BITMAP
00F8C0
01FF80
018F00
000000
000000
000000
000000
380030
380070
380070
300070
700070
700070
700060
7000E0
6000E0
E000E0
E000E0
E000E0
E000C0
E001C0
E001C0
E001C0
E00380
E00380
E00700
F00F00
7FFE00
3FF800
1FF000
ENDCHAR
STARTCHAR 0169
ENCODING 361
SWIDTH 600 0
DWIDTH 20 0
BBX 18 24 3 0
BITMAP
03E300
07FE00
061C00
000000
000000
000000
3801C0
3801C0
380380
380380
380380
300380
700380
700380
700700
700700
700700
600700
E00F00
F00E00
701E00
7C7E00
3FEE00
1F8E00
ENDCHAR
STARTCHAR 016A
ENCODING 362
SWIDTH 660 0
DWIDTH 22 0
BBX 20 28 4 0
BITMAP
01FF80
000000
000000
000000
000000
380030
380070
380070
300070
700070
700070
700060
7000E0
6000E0
E000E0
E000E0
E000E0
E000C0
E001C0
E001C0
E001C0
E00380
E00380
E00700
F00F00
7FFE00
3FF800
1FF000
ENDCHAR
STARTCHAR 016B
ENCODING 363
SWIDTH 600 0
DWIDTH 20 0
BBX 18 22 3 0
BITMAP
07FE00
000000
000000
000000
3801C0
3801C0
380380
380380
380380
300380
700380
700380
700700
700700
700700
600700
E00F00
F00E00
701E00
7C7E00
3FEE00
1F8E00
ENDCHAR
STARTCHAR 016E
ENCODING 366
SWIDTH 660 0
DWIDTH 22 0
BBX 20 32 4 0
BITMAP
001C00
003600
002200
006200
003E00
001800
000000
000000
000000
380030
380070
380070
300070
700070
700070
700060
7000E0
6000E0
E000E0
E000E0
E000E0
E000C0
E001C0
E001C0
E001C0
E00380
E00380
E00700
F00F00
7FFE00
3FF800
1FF000
ENDCHAR
STARTCHAR 016F
ENCODING 367
SWIDTH 600 0
DWIDTH 20 0
BBX 18 26 3 0
BITMAP
007800
00C800
008800
008800
00F800
004000
000000
000000
3801C0
3801C0
380380
380380
380380
300380
700380
700380
700700
700700
700700
600700
E00F00
F00E00
701E00
7C7E00
3FEE00
1F8E00
ENDCHAR
STARTCHAR 0172
ENCODING 370
SWIDTH 660 0
DWIDTH 22 0
BBX 20 29 4 -6
BITMAP
380030
380070
380070
300070
700070
700070
700060
7000E0
6000E0
E000E0
E000E0
E000E0
E000C0
E001C0
E001C0
E001C0
E00380
E00380
E00700
F00F00
7FFE00
3FF800
1FF000
030000
060000
060000
0E0000
078000
038000
ENDCHAR
STARTCHAR 0173
ENCODING 371
SWIDTH 600 0
DWIDTH 20 0
BBX 18 23 3 -5
BITMAP
3801C0
3801C0
380380
380380
380380
300380
700380
700380
700700
700700
700700
600700
E00F00
F00E00
701E00
7C7E00
3FEE00
1F8E00
001800
003000
003000
003800
003E00
ENDCHAR
STARTCHAR 0174
ENCODING 372
SWIDTH 990 0
DWIDTH 33 0
BBX 31 30 5 0
BITMAP
0001E000
00076000
000E7000
001C3800
00000000
00000000
00000000
C003800E
C007800E
E007801C
E00F801C
E00FC018
E01DC038
E01DC038
E039C070
E039C070
E070C0E0
6070C0E0
60E0E0C0
60E0E1C0
71C0E1C0
71C0E380
7380E380
73806700
77007700
77007600
7E007E00
7E007C00
3C007C00
3C007C00
ENDCHAR
STARTCHAR 0175
ENCODING 373
SWIDTH 810 0
DWIDTH 27 0
BBX 25 25 4 0
BITMAP
000E0000
001F0000
003B8000
00718000
00E1C000
00000000
00000000
E01C0380
E01C0380
E03C0700
E03C0700
607E0600
607E0E00
60EE0C00
70EE1C00
71CE1C00
71C63800
73863800
73873000
73077000
77076000
3607E000
3E07C000
3C07C000
3C03C000
ENDCHAR
STARTCHAR 0176
ENCODING 374
SWIDTH 600 0
DWIDTH 20 0
BBX 18 30 5 0
BITMAP
00F000
01F800
039C00
070C00
080200
000000
000000
F003C0
700380
700700
700F00
380E00
381C00
383C00
1C3800
1C7000
1CF000
0EE000
0FC000
0F8000
078000
070000
070000
070000
070000
0E0000
0E0000
0E0000
0E0000
0E0000
ENDCHAR
STARTCHAR 0177
ENCODING 375
SWIDTH 480 0
DWIDTH 16 0
BBX 19 32 0 -7
BITMAP
001C00
003E00
007E00
00E700
01C380
000000
000000
1C00E0
1C00E0
0E01C0
0E01C0
0E0380
0E0380
060700
070600
070E00
071C00
071C00
033800
03B000
03F000
03E000
01E000
01C000
01C000
038000
030000
070000
0E0000
BC0000
F80000
F00000
ENDCHAR
STARTCHAR 0178
ENCODING 376
SWIDTH 600 0
DWIDTH 20 0
BBX 18 30 5 0
BITMAP
078E00
079E00
070E00
000000
000000
000000
000000
F003C0
700380
700700
700F00
380E00
381C00
383C00
1C3800
1C7000
1CF000
0EE000
0FC000
0F8000
078000
070000
070000
070000
070000
0E0000
0E0000
0E0000
0E0000
0E0000
ENDCHAR
STARTCHAR 0179
ENCODING 377
SWIDTH 600 0
DWIDTH 20 0
BBX 20 32 2 0
BITMAP
0000E0
0001C0
000380
000300
000600
000E00
000000
000000
000000
0FFFF0
1FFFF0
0000F0
0001E0
0003C0
000780
000700
000E00
001C00
003800
007000
00F000
01E000
03C000
078000
0F0000
0E0000
1C0000
380000
700000
FFFF80
FFFF00
FFFF00
ENDCHAR
STARTCHAR 017A
ENCODING 378
SWIDTH 480 0
DWIDTH 16 0
BBX 16 26 2 0
BITMAP
0007
000E
001C
0018
0030
0070
0000
0000
1FFF
1FFF
1FFF
000E
001C
0038
0070
00E0
01C0
0380
0700
0E00
1C00
3800
7000
E000
FFF8
FFF8
ENDCHAR
STARTCHAR 017B
ENCODING 379
SWIDTH 600 0
DWIDTH 20 0
BBX 20 30 2 0
BITMAP
000E00
001E00
001C00
000000
000000
000000
000000
0FFFF0
1FFFF0
0000F0
0001E0
0003C0
000780
000700
000E00
001C00
003800
007000
00F000
01E000
03C000
078000
0F0000
0E0000
1C0000
380000
700000
FFFF80
FFFF00
FFFF00
ENDCHAR
STARTCHAR 017C
ENCODING 380
SWIDTH 480 0
DWIDTH 16 0
BBX 16 25 2 0
BITMAP
0020
0070
00F0
0070
0000
0000
0000
1FFF
1FFF
1FFF
000E
001C
0038
0070
00E0
01C0
0380
0700
0E00
1C00
3800
7000
E000
FFF8
FFF8
ENDCHAR
STARTCHAR 017D
ENCODING 381
SWIDTH 600 0
DWIDTH 20 0
BBX 20 30 2 0
BITMAP
00E1C0
007380
003F00
001E00
000000
000000
000000
0FFFF0
1FFFF0
0000F0
0001E0
0003C0
000780
000700
000E00
001C00
003800
007000
00F000
01E000
03C000
078000
0F0000
0E0000
1C0000
380000
700000
FFFF80
FFFF00
FFFF00
ENDCHAR
STARTCHAR 017E
ENCODING 382
SWIDTH 480 0
DWIDTH 16 0
BBX 16 25 2 0
BITMAP
0707
038E
019C
01F8
00F0
0000
0000
1FFF
1FFF
1FFF
000E
001C
0038
0070
00E0
01C0
0380
0700
0E00
1C00
3800
7000
E000
FFF8
FFF8
ENDCHAR
STARTCHAR 01A0
ENCODING 416
SWIDTH 720 0
DWIDTH 24 0
BBX 22 26 3 0
BITMAP
00000C
00000C
001F3C
00FFF8
03FFF0
07C0F0
0F0078
1E0038
1C003C
38001C
38001C
70001C
70001C
70001C
70001C
70003C
F00038
F00038
700078
700070
7000E0
7801E0
3C03C0
3FBF80
1FFE00
07F800
ENDCHAR
STARTCHAR 01A1
ENCODING 417
SWIDTH 570 0
DWIDTH 19 0
BBX 19 21 3 0
BITMAP
0000E0
0000C0
0000C0
01FFC0
07FF80
1FBE00
3C0F00
380700
700700
E00700
E00300
E00700
E00700
E00700
E00700
E00E00
E01E00
F03C00
78F800
3FF000
1FC000
ENDCHAR
STARTCHAR 01AF
ENCODING 431
SWIDTH 660 0
DWIDTH 22 0
BBX 25 26 4 0
BITMAP
00000380
00000300
00000700
38003E00
38007000
38007000
30007000
70007000
70007000
70006000
7000E000
6000E000
E000E000
E000E000
E000E000
E000C000
E001C000
E001C000
E001C000
E0038000
E0038000
E0070000
F00F0000
7FFE0000
3FF80000
1FF00000
ENDCHAR
STARTCHAR 01B0
ENCODING 432
SWIDTH 600 0
DWIDTH 20 0
BBX 22 21 3 0
BITMAP
00000C
00001C
000018
3801F8
3801F0
380380
380380
380380
300380
700380
700380
700700
700700
700700
600700
E00F00
F00E00
701E00
7C7E00
3FEE00
1F8E00
ENDCHAR
STARTCHAR 02C6
ENCODING 710
SWIDTH 390 0
DWIDTH 13 0
BBX 10 5 5 20
BITMAP
0600
0F00
1B80
71C0
E1C0
ENDCHAR
STARTCHAR 02C7
ENCODING 711
SWIDTH 390 0
DWIDTH 13 0
BBX 11 5 5 20
BITMAP
E0E0
71C0
3B80
1F00
1E00
ENDCHAR
STARTCHAR 02D8
ENCODING 728
SWIDTH 390 0
DWIDTH 13 0
BBX 11 4 5 20
BITMAP
E060
71C0
7F80
1E00
ENDCHAR
STARTCHAR 02D9
ENCODING 729
SWIDTH 150 0
DWIDTH 5 0
BBX 4 3 5 22
BITMAP
F0
F0
E0
ENDCHAR
STARTCHAR 02DA
ENCODING 730
SWIDTH 210 0
DWIDTH 7 0
BBX 6 6 5 20
BITMAP
78
CC
8C
8C
F8
20
ENDCHAR
STARTCHAR 02DB
ENCODING 731
SWIDTH 210 0
DWIDTH 7 0
BBX 5 6 0 -6
BITMAP
10
70
60
E0
F8
78
ENDCHAR
STARTCHAR 02DC
ENCODING 732
SWIDTH 360 0
DWIDTH 12 0
BBX 11 3 5 21
BITMAP
7CE0
FFC0
C780
ENDCHAR
STARTCHAR 0300
ENCODING 768
SWIDTH 0 0
DWIDTH 0 0
BBX 5 6 -3 21
BITMAP
E0
E0
70
70
38
18
ENDCHAR
STARTCHAR 0301
ENCODING 769
SWIDTH 0 0
DWIDTH 0 0
BBX 6 6 -2 21
BITMAP
1C
38
38
70
E0
C0
ENDCHAR
STARTCHAR 0302
ENCODING 770
SWIDTH 0 0
DWIDTH 0 0
BBX 10 5 -8 20
BITMAP
0600
0F00
3B80
71C0
E1C0
ENDCHAR
STARTCHAR 0303
ENCODING 771
SWIDTH 0 0
DWIDTH 0 0
BBX 10 3 -7 21
BITMAP
7CC0
FFC0
C780
ENDCHAR
STARTCHAR 0304
ENCODING 772
SWIDTH 0 0
DWIDTH 0 0
BBX 10 2 -8 21
BITMAP
FFC0
FFC0
ENDCHAR
STARTCHAR 0306
ENCODING 774
SWIDTH 0 0
DWIDTH 0 0
BBX 11 4 -8 20
BITMAP
E060
61C0
7F80
1E00
ENDCHAR
STARTCHAR 0307
ENCODING 775
SWIDTH 0 0
DWIDTH 0 0
BBX 4 4 -2 21
BITMAP
20
F0
F0
E0
ENDCHAR
STARTCHAR 0308
ENCODING 776
SWIDTH 0 0
DWIDTH 0 0
BBX 11 4 -9 21
BITMAP
2000
71E0
F1E0
61C0
ENDCHAR
STARTCHAR 0309
ENCODING 777
SWIDTH 0 0
DWIDTH 0 0
BBX 7 6 -4 21
BITMAP
3C
7E
C6
06
0C
38
ENDCHAR
STARTCHAR 030A
ENCODING 778
SWIDTH 0 0
DWIDTH 0 0
BBX 6 6 -4 20
BITMAP
3C
64
C4
C4
78
20
ENDCHAR
STARTCHAR 030C
ENCODING 780
SWIDTH 0 0
DWIDTH 0 0
BBX 11 5 -8 20
BITMAP
E0E0
61C0
7380
3F00
1E00
ENDCHAR
STARTCHAR 031B
ENCODING 795
SWIDTH 0 0
DWIDTH 0 0
BBX 7 5 -4 18
BITMAP
06
0E
0C
7C
F0
ENDCHAR
STARTCHAR 0323
ENCODING 803
SWIDTH 0 0
DWIDTH 0 0
BBX 4 3 -5 -7
BITMAP
E0
F0
E0
ENDCHAR
STARTCHAR 0327
ENCODING 807
SWIDTH 0 0
DWIDTH 0 0
BBX 6 8 -8 -8
BITMAP
20
60
78
1C
04
0C
B8
F0
ENDCHAR
STARTCHAR 0328
ENCODING 808
SWIDTH 0 0
DWIDTH 0 0
BBX 5 6 -7 -6
BITMAP
30
60
C0
C0
F8
78
ENDCHAR
STARTCHAR 1E80
ENCODING 7808
SWIDTH 990 0
DWIDTH 33 0
BBX 31 32 5 0
BITMAP
000E0000
000E0000
00070000
00070000
00030000
00038000
00000000
00000000
00000000
C003800E
C007800E
E007801C
E00F801C
E00FC018
E01DC038
E01DC038
E039C070
E039C070
E070C0E0
6070C0E0
60E0E0C0
60E0E1C0
71C0E1C0
71C0E380
7380E380
73806700
77007700
77007600
7E007E00
7E007C00
3C007C00
3C007C00
ENDCHAR
STARTCHAR 1E81
ENCODING 7809
SWIDTH 810 0
DWIDTH 27 0
BBX 25 26 4 0
BITMAP
00700000
00300000
00380000
00180000
001C0000
000C0000
00000000
00000000
E01C0380
E01C0380
E03C0700
E03C0700
607E0600
607E0E00
60EE0C00
70EE1C00
71CE1C00
71C63800
73863800
73873000
73077000
77076000
3607E000
3E07C000
3C07C000
3C03C000
ENDCHAR
STARTCHAR 1E82
ENCODING 7810
SWIDTH 990 0
DWIDTH 33 0
BBX 31 32 5 0
BITMAP
00001C00
00003800
00003000
00007000
0000E000
0001C000
00000000
00000000
00000000
C003800E
C007800E
E007801C
E00F801C
E00FC018
E01DC038
E01DC038
E039C070
E039C070
E070C0E0
6070C0E0
60E0E0C0
60E0E1C0
71C0E1C0
71C0E380
7380E380
73806700
77007700
77007600
7E007E00
7E007C00
3C007C00
3C007C00
ENDCHAR
STARTCHAR 1E83
ENCODING 7811
SWIDTH 810 0
DWIDTH 27 0
BBX 25 26 4 0
BITMAP
0000E000
0001C000
00018000
00030000
00070000
000E0000
00000000
00000000
E01C0380
E01C0380
E03C0700
E03C0700
607E0600
607E0E00
60EE0C00
70EE1C00
71CE1C00
71C63800
73863800
73873000
73077000
77076000
3607E000
3E07C000
3C07C000
3C03C000
ENDCHAR
STARTCHAR 1E84
ENCODING 7812
SWIDTH 990 0
DWIDTH 33 0
BBX 31 30 5 0
BITMAP
000E3800
001E3C00
001E3800
00000000
00000000
00000000
00000000
C003800E
C007800E
E007801C
E00F801C
E00FC018
E01DC038
E01DC038
E039C070
E039C070
E070C0E0
6070C0E0
60E0E0C0
60E0E1C0
71C0E1C0
71C0E380
7380E380
73806700
77007700
77007600
7E007E00
7E007C00
3C007C00
3C007C00
ENDCHAR
STARTCHAR 1E85
ENCODING 7813
SWIDTH 810 0
DWIDTH 27 0
BBX 25 25 4 0
BITMAP
00200000
0071E000
00F1E000
0071C000
00000000
00000000
00000000
E01C0380
E01C0380
E03C0700
E03C0700
607E0600
607E0E00
60EE0C00
70EE1C00
71CE1C00
71C63800
73863800
73873000
73077000
77076000
3607E000
3E07C000
3C07C000
3C03C000
ENDCHAR
STARTCHAR 1EA0
ENCODING 7840
SWIDTH 660 0
DWIDTH 22 0
BBX 20 30 1 -7
BITMAP
000F00
000F00
001F00
001F00
003B80
003380
007380
006180
00E180
00C1C0
01C1C0
0381C0
0380C0
0700E0
07FFE0
0FFFE0
0E00E0
1C0060
1C0070
380070
300070
700070
E00070
000000
000000
000000
000000
00E000
00E000
00E000
ENDCHAR
STARTCHAR 1EA1
ENCODING 7841
SWIDTH 600 0
DWIDTH 20 0
BBX 18 25 3 -7
BITMAP
03F1C0
0FF9C0
1FBD80
3C0F80
780780
700780
F00780
E00380
E00700
E00700
E00700
E00700
E00F00
E01F00
F03600
786E00
7FCE00
3F8E00
000000
000000
000000
000000
070000
0F0000
0F0000
ENDCHAR
STARTCHAR 1EA2
ENCODING 7842
SWIDTH 660 0
DWIDTH 22 0
BBX 20 32 1 0
BITMAP
0003C0
0007E0
000C60
0000E0
0000C0
000380
000000
000000
000000
000F00
000F00
001F00
001F00
003B80
003380
007380
006180
00E180
00C1C0
01C1C0
0381C0
0380C0
0700E0
07FFE0
0FFFE0
0E00E0
1C0060
1C0070
380070
300070
700070
E00070
ENDCHAR
STARTCHAR 1EA3
ENCODING 7843
SWIDTH 600 0
DWIDTH 20 0
BBX 18 26 3 0
BITMAP
007C00
00FC00
01CE00
000C00
001800
003000
000000
000000
03F1C0
0FF9C0
1FBD80
3C0F80
780780
700780
F00780
E00380
E00700
E00700
E00700
E00700
E00F00
E01F00
F03600
786E00
7FCE00
3F8E00
ENDCHAR
STARTCHAR 1EA4
ENCODING 7844
SWIDTH 660 0
DWIDTH 22 0
BBX 26 36 1 0
BITMAP
000001C0
000001C0
00000380
00000700
00000E00
00000C00
00078000
000FC000
001CE000
00387000
00000000
00000000
00000000
000F0000
000F0000
001F0000
001F0000
003B8000
00338000
00738000
00618000
00E18000
00C1C000
01C1C000
0381C000
0380C000
0700E000
07FFE000
0FFFE000
0E00E000
1C006000
1C007000
38007000
30007000
70007000
E0007000
ENDCHAR
STARTCHAR 1EA5
ENCODING 7845
SWIDTH 600 0
DWIDTH 20 0
BBX 22 30 3 0
BITMAP
00001C
000038
000070
000060
0000C0
0031C0
007800
00DC00
018E00
070600
000000
000000
03F1C0
0FF9C0
1FBD80
3C0F80
780780
700780
F00780
E00380
E00700
E00700
E00700
E00700
E00F00
E01F00
F03600
786E00
7FCE00
3F8E00
ENDCHAR
STARTCHAR 1EA6
ENCODING 7846
SWIDTH 660 0
DWIDTH 22 0
BBX 21 36 1 0
BITMAP
0000E0
000070
000070
000030
000038
000018
000780
000FC0
001CE0
003870
000000
000000
000000
000F00
000F00
001F00
001F00
003B80
003380
007380
006180
00E180
00C1C0
01C1C0
0381C0
0380C0
0700E0
07FFE0
0FFFE0
0E00E0
1C0060
1C0070
380070
300070
700070
E00070
ENDCHAR
STARTCHAR 1EA7
ENCODING 7847
SWIDTH 600 0
DWIDTH 20 0
BBX 18 30 3 0
BITMAP
000E00
000600
000700
000300
000380
003180
007800
00DC00
038E00
070E00
000000
000000
03F1C0
0FF9C0
1FBD80
3C0F80
780780
700780
F00780
E00380
E00700
E00700
E00700
E00700
E00F00
E01F00
F03600
786E00
7FCE00
3F8E00
ENDCHAR
STARTCHAR 1EA8
ENCODING 7848
SWIDTH 660 0
DWIDTH 22 0
BBX 24 36 1 0
BITMAP
00001E
00003F
000073
000003
000007
00000C
000780
000FC0
001CE0
003870
000000
000000
000000
000F00
000F00
001F00
001F00
003B80
003380
007380
006180
00E180
00C1C0
01C1C0
0381C0
0380C0
0700E0
07FFE0
0FFFE0
0E00E0
1C0060
1C0070
380070
300070
700070
E00070
ENDCHAR
STARTCHAR 1EA9
ENCODING 7849
SWIDTH 600 0
DWIDTH 20 0
BBX 20 30 3 0
BITMAP
0003E0
0007F0
000630
000030
0000E0
0031C0
007800
00DC00
018E00
070600
000000
000000
03F1C0
0FF9C0
1FBD80
3C0F80
780780
700780
F00780
E00380
E00700
E00700
E00700
E00700
E00F00
E01F00
F03600
786E00
7FCE00
3F8E00
ENDCHAR
STARTCHAR 1EAA
ENCODING 7850
SWIDTH 660 0
DWIDTH 22 0
BBX 21 35 1 0
BITMAP
001F18
001FF0
0030E0
000000
000000
000780
000FC0
001CE0
003870
000000
000000
000000
000F00
000F00
001F00
001F00
003B80
003380
007380
006180
00E180
00C1C0
01C1C0
0381C0
0380C0
0700E0
07FFE0
0FFFE0
0E00E0
1C0060
1C0070
380070
300070
700070
E00070
ENDCHAR
STARTCHAR 1EAB
ENCODING 7851
SWIDTH 600 0
DWIDTH 20 0
BBX 18 30 3 0
BITMAP
004180
01F300
03BF00
030C00
000000
003000
007800
00DC00
018E00
070600
000000
000000
03F1C0
0FF9C0
1FBD80
3C0F80
780780
700780
F00780
E00380
E00700
E00700
E00700
E00700
E00F00
E01F00
F03600
786E00
7FCE00
3F8E00
ENDCHAR
STARTCHAR 1EAC
ENCODING 7852
SWIDTH 660 0
DWIDTH 22 0
BBX 20 37 1 -7
BITMAP
000780
000FC0
001CE0
003870
000000
000000
000000
000F00
000F00
001F00
001F00
003B80
003380
007380
006180
00E180
00C1C0
01C1C0
0381C0
0380C0
0700E0
07FFE0
0FFFE0
0E00E0
1C0060
1C0070
380070
300070
700070
E00070
000000
000000
000000
000000
00E000
00E000
00E000
ENDCHAR
STARTCHAR 1EAD
ENCODING 7853
SWIDTH 600 0
DWIDTH 20 0
BBX 18 32 3 -7
BITMAP
003000
007800
00DC00
018E00
070600
000000
000000
03F1C0
0FF9C0
1FBD80
3C0F80
780780
700780
F00780
E00380
E00700
E00700
E00700
E00700
E00F00
E01F00
F03600
786E00
7FCE00
3F8E00
000000
000000
000000
000000
070000
0F0000
0F0000
ENDCHAR
STARTCHAR 1EAE
ENCODING 7854
SWIDTH 660 0
DWIDTH 22 0
BBX 21 36 1 0
BITMAP
000038
000070
000060
0000C0
0001C0
000380
003038
003870
001FE0
000F80
000000
000000
000000
000F00
000F00
001F00
001F00
003B80
003380
007380
006180
00E180
00C1C0
01C1C0
0381C0
0380C0
0700E0
07FFE0
0FFFE0
0E00E0
1C0060
1C0070
380070
300070
700070
E00070
ENDCHAR
STARTCHAR 1EAF
ENCODING 7855
SWIDTH 600 0
DWIDTH 20 0
BBX 18 31 3 0
BITMAP
000380
000300
000700
000E00
001C00
001800
000000
070300
038700
01FC00
00F000
000000
000000
03F1C0
0FF9C0
1FBD80
3C0F80
780780
700780
F00780
E00380
E00700
E00700
E00700
E00700
E00F00
E01F00
F03600
786E00
7FCE00
3F8E00
ENDCHAR
STARTCHAR 1EB0
ENCODING 7856
SWIDTH 660 0
DWIDTH 22 0
BBX 21 36 1 0
BITMAP
000E00
000E00
000600
000700
000300
000380
003018
003830
001FE0
000FC0
000000
000000
000000
000F00
000F00
001F00
001F00
003B80
003380
007380
006180
00E180
00C1C0
01C1C0
0381C0
0380C0
0700E0
07FFE0
0FFFE0
0E00E0
1C0060
1C0070
380070
300070
700070
E00070
ENDCHAR
STARTCHAR 1EB1
ENCODING 7857
SWIDTH 600 0
DWIDTH 20 0
BBX 18 31 3 0
BITMAP
01C000
01C000
00E000
006000
007000
003000
000000
030380
038700
01FE00
007000
000000
000000
03F1C0
0FF9C0
1FBD80
3C0F80
780780
700780
F00780
E00380
E00700
E00700
E00700
E00700
E00F00
E01F00
F03600
786E00
7FCE00
3F8E00
ENDCHAR
STARTCHAR 1EB2
ENCODING 7858
SWIDTH 660 0
DWIDTH 22 0
BBX 21 37 1 0
BITMAP
0000C0
0003E0
000670
000070
000060
0001C0
000380
003038
003870
001FE0
000F80
000000
000000
000000
000F00
000F00
001F00
001F00
003B80
003380
007380
006180
00E180
00C1C0
01C1C0
0381C0
0380C0
0700E0
07FFE0
0FFFE0
0E00E0
1C0060
1C0070
380070
300070
700070
E00070
ENDCHAR
STARTCHAR 1EB3
ENCODING 7859
SWIDTH 600 0
DWIDTH 20 0
BBX 18 31 3 0
BITMAP
003C00
007E00
00E600
000600
000E00
001800
002000
070300
038700
01FC00
00F000
000000
000000
03F1C0
0FF9C0
1FBD80
3C0F80
780780
700780
F00780
E00380
E00700
E00700
E00700
E00700
E00F00
E01F00
F03600
786E00
7FCE00
3F8E00
ENDCHAR
STARTCHAR 1EB4
ENCODING 7860
SWIDTH 660 0
DWIDTH 22 0
BBX 21 35 1 0
BITMAP
000F08
001FF8
0019F0
000000
000000
003038
003870
001FE0
000F80
000000
000000
000000
000F00
000F00
001F00
001F00
003B80
003380
007380
006180
00E180
00C1C0
01C1C0
0381C0
0380C0
0700E0
07FFE0
0FFFE0
0E00E0
1C0060
1C0070
380070
300070
700070
E00070
ENDCHAR
STARTCHAR 1EB5
ENCODING 7861
SWIDTH 600 0
DWIDTH 20 0
BBX 18 29 3 0
BITMAP
00F180
01FF00
031F00
000000
000000
070300
038600
01FC00
00F000
000000
000000
03F1C0
0FF9C0
1FBD80
3C0F80
780780
700780
F00780
E00380
E00700
E00700
E00700
E00700
E00F00
E01F00
F03600
786E00
7FCE00
3F8E00
ENDCHAR
STARTCHAR 1EB6
ENCODING 7862
SWIDTH 660 0
DWIDTH 22 0
BBX 21 37 1 -7
BITMAP
003038
003870
001FE0
000F80
000000
000000
000000
000F00
000F00
001F00
001F00
003B80
003380
007380
006180
00E180
00C1C0
01C1C0
0381C0
0380C0
0700E0
07FFE0
0FFFE0
0E00E0
1C0060
1C0070
380070
300070
700070
E00070
000000
000000
000000
000000
00E000
00E000
00E000
ENDCHAR
STARTCHAR 1EB7
ENCODING 7863
SWIDTH 600 0
DWIDTH 20 0
BBX 18 31 3 -7
BITMAP
070300
038700
01FC00
00F000
000000
000000
03F1C0
0FF9C0
1FBD80
3C0F80
780780
700780
F00780
E00380
E00700
E00700
E00700
E00700
E00F00
E01F00
F03600
786E00
7FCE00
3F8E00
000000
000000
000000
000000
070000
0F0000
0F0000
ENDCHAR
STARTCHAR 1EB8
ENCODING 7864
SWIDTH 540 0
DWIDTH 18 0
BBX 18 30 3 -7
BITMAP
1FFFC0
1FFFC0
1C0000
1C0000
1C0000
380000
380000
380000
380000
380000
3FFE00
7FFC00
700000
700000
700000
700000
700000
E00000
E00000
E00000
FFFC00
FFFC00
FFFC00
000000
000000
000000
000000
0E0000
0F0000
0E0000
ENDCHAR
STARTCHAR 1EB9
ENCODING 7865
SWIDTH 540 0
DWIDTH 18 0
BBX 16 25 3 -7
BITMAP
03F8
0FFE
1E0F
3807
7007
7007
E007
E01E
FFFC
FFF0
E000
C000
E00E
E00E
F01C
7C78
3FF0
1FC0
0000
0000
0000
0000
0380
0780
0780
ENDCHAR
STARTCHAR 1EBA
ENCODING 7866
SWIDTH 540 0
DWIDTH 18 0
BBX 18 32 3 0
BITMAP
003C00
007E00
00C600
000600
000C00
001800
002000
000000
000000
1FFFC0
1FFFC0
1C0000
1C0000
1C0000
380000
380000
380000
380000
380000
3FFE00
7FFC00
700000
700000
700000
700000
700000
E00000
E00000
E00000
FFFC00
FFFC00
FFFC00
ENDCHAR
STARTCHAR 1EBB
ENCODING 7867
SWIDTH 540 0
DWIDTH 18 0
BBX 16 26 3 0
BITMAP
007C
00FC
01CE
000C
001C
0030
0000
0000
03F8
0FFE
1E0F
3807
7007
7007
E007
E01E
FFFC
FFF0
E000
C000
E00E
E00E
F01C
7C78
3FF0
1FC0
ENDCHAR
STARTCHAR 1EBC
ENCODING 7868
SWIDTH 540 0
DWIDTH 18 0
BBX 18 30 3 0
BITMAP
00F180
01FF00
031E00
000000
000000
000000
000000
1FFFC0
1FFFC0
1C0000
1C0000
1C0000
380000
380000
380000
380000
380000
3FFE00
7FFC00
700000
700000
700000
700000
700000
E00000
E00000
E00000
FFFC00
FFFC00
FFFC00
ENDCHAR
STARTCHAR 1EBD
ENCODING 7869
SWIDTH 540 0
DWIDTH 18 0
BBX 16 24 3 0
BITMAP
01F3
03FF
061C
0000
0000
0000
03F8
0FFE
1E0F
3807
7007
7007
E007
E01E
FFFC
FFF0
E000
C000
E00E
E00E
F01C
7C78
3FF0
1FC0
ENDCHAR
STARTCHAR 1EBE
ENCODING 7870
SWIDTH 540 0
DWIDTH 18 0
BBX 23 36 3 0
BITMAP
00000E
00001C
000038
000030
000060
0000E0
003C00
006C00
01CE00
038700
000000
000000
000000
1FFFC0
1FFFC0
1C0000
1C0000
1C0000
380000
380000
380000
380000
380000
3FFE00
7FFC00
700000
700000
700000
700000
700000
E00000
E00000
E00000
FFFC00
FFFC00
FFFC00
ENDCHAR
STARTCHAR 1EBF
ENCODING 7871
SWIDTH 540 0
DWIDTH 18 0
BBX 22 30 3 0
BITMAP
00001C
000038
000070
000060
0000C0
0039C0
007800
00FC00
018E00
030600
040000
000000
03F800
0FFE00
1E0F00
380700
700700
700700
E00700
E01E00
FFFC00
FFF000
E00000
C00000
E00E00
E00E00
F01C00
7C7800
3FF000
1FC000
ENDCHAR
STARTCHAR 1EC0
ENCODING 7872
SWIDTH 540 0
DWIDTH 18 0
BBX 18 36 3 0
BITMAP
000700
000700
000300
000380
000180
0001C0
003C00
006C00
01CE00
038700
000000
000000
000000
1FFFC0
1FFFC0
1C0000
1C0000
1C0000
380000
380000
380000
380000
380000
3FFE00
7FFC00
700000
700000
700000
700000
700000
E00000
E00000
E00000
FFFC00
FFFC00
FFFC00
ENDCHAR
STARTCHAR 1EC1
ENCODING 7873
SWIDTH 540 0
DWIDTH 18 0
BBX 17 30 3 0
BITMAP
000E00
000700
000700
000300
000380
003180
007800
00DC00
018E00
070600
000000
000000
03F800
0FFE00
1E0F00
380700
700700
700700
E00700
E01E00
FFFC00
FFF000
E00000
C00000
E00E00
E00E00
F01C00
7C7800
3FF000
1FC000
ENDCHAR
STARTCHAR 1EC2
ENCODING 7874
SWIDTH 540 0
DWIDTH 18 0
BBX 21 36 3 0
BITMAP
0001F0
0003F8
000318
000038
000070
0000E0
003C00
006C00
01CE00
038700
000000
000000
000000
1FFFC0
1FFFC0
1C0000
1C0000
1C0000
380000
380000
380000
380000
380000
3FFE00
7FFC00
700000
700000
700000
700000
700000
E00000
E00000
E00000
FFFC00
FFFC00
FFFC00
ENDCHAR
STARTCHAR 1EC3
ENCODING 7875
SWIDTH 540 0
DWIDTH 18 0
BBX 20 30 3 0
BITMAP
0003E0
0007F0
000630
000030
0000E0
0031C0
007800
00FC00
018E00
070600
000000
000000
03F800
0FFE00
1E0F00
380700
700700
700700
E00700
E01E00
FFFC00
FFF000
E00000
C00000
E00E00
E00E00
F01C00
7C7800
3FF000
1FC000
ENDCHAR
STARTCHAR 1EC4
ENCODING 7876
SWIDTH 540 0
DWIDTH 18 0
BBX 18 35 3 0
BITMAP
00F980
01FF80
030F00
000000
000000
003C00
006C00
01CE00
038700
000000
000000
000000
1FFFC0
1FFFC0
1C0000
1C0000
1C0000
380000
380000
380000
380000
380000
3FFE00
7FFC00
700000
700000
700000
700000
700000
E00000
E00000
E00000
FFFC00
FFFC00
FFFC00
ENDCHAR
STARTCHAR 1EC5
ENCODING 7877
SWIDTH 540 0
DWIDTH 18 0
BBX 17 30 3 0
BITMAP
004180
01F380
03BF00
030C00
000000
003800
007800
00FC00
018E00
030600
040000
000000
03F800
0FFE00
1E0F00
380700
700700
700700
E00700
E01E00
FFFC00
FFF000
E00000
C00000
E00E00
E00E00
F01C00
7C7800
3FF000
1FC000
ENDCHAR
STARTCHAR 1EC6
ENCODING 7878
SWIDTH 540 0
DWIDTH 18 0
BBX 18 37 3 -7
BITMAP
003C00
006C00
01CE00
038700
000000
000000
000000
1FFFC0
1FFFC0
1C0000
1C0000
1C0000
380000
380000
380000
380000
380000
3FFE00
7FFC00
700000
700000
700000
700000
700000
E00000
E00000
E00000
FFFC00
FFFC00
FFFC00
000000
000000
000000
000000
0E0000
0F0000
0E0000
ENDCHAR
STARTCHAR 1EC7
ENCODING 7879
SWIDTH 540 0
DWIDTH 18 0
BBX 16 32 3 -7
BITMAP
0038
0078
00FC
018E
0306
0400
0000
03F8
0FFE
1E0F
3807
7007
7007
E007
E01E
FFFC
FFF0
E000
C000
E00E
E00E
F01C
7C78
3FF0
1FC0
0000
0000
0000
0000
0380
0780
0780
ENDCHAR
STARTCHAR 1EC8
ENCODING 7880
SWIDTH 240 0
DWIDTH 8 0
BBX 10 32 3 0
BITMAP
0700
1F80
19C0
0180
0380
0700
0000
0000
0000
1C00
1C00
1C00
1C00
1C00
1800
3800
3800
3800
3800
3800
3000
7000
7000
7000
7000
7000
6000
E000
E000
E000
E000
E000
ENDCHAR
STARTCHAR 1EC9
ENCODING 7881
SWIDTH 240 0
DWIDTH 8 0
BBX 9 26 3 0
BITMAP
1F00
3F80
3180
0380
0700
0C00
0000
0000
1C00
1800
3800
3800
3800
3800
3800
3000
7000
7000
7000
7000
7000
E000
E000
E000
E000
E000
ENDCHAR
STARTCHAR 1ECA
ENCODING 7882
SWIDTH 240 0
DWIDTH 8 0
BBX 8 30 1 -7
BITMAP
07
07
07
07
07
06
0E
0E
0E
0E
0E
0C
1C
1C
1C
1C
1C
18
38
38
38
38
38
00
00
00
00
70
F0
F0
ENDCHAR
STARTCHAR 1ECB
ENCODING 7883
SWIDTH 240 0
DWIDTH 8 0
BBX 9 31 1 -6
BITMAP
0780
0780
0700
0000
0000
0000
0700
0600
0E00
0E00
0E00
0E00
0E00
0C00
1C00
1C00
1C00
1C00
1C00
3800
3800
3800
3800
3800
0000
0000
0000
0000
7000
F000
F000
ENDCHAR
STARTCHAR 1ECC
ENCODING 7884
SWIDTH 720 0
DWIDTH 24 0
BBX 22 31 3 -7
BITMAP
001F00
00FFC0
03FFF0
07C0F0
0F0078
1E0038
1C003C
38001C
38001C
70001C
70001C
70001C
70001C
70003C
F00038
F00038
700078
700070
7000E0
7801E0
3C03C0
3FBF80
1FFE00
07F800
000000
000000
000000
000000
01C000
03C000
01C000
ENDCHAR
STARTCHAR 1ECD
ENCODING 7885
SWIDTH 570 0
DWIDTH 19 0
BBX 16 25 3 -7
BITMAP
01F8
07FC
1FBE
3C0F
3807
7007
E007
E003
E007
E007
E007
E007
E00E
E01E
F03C
78F8
3FF0
1FC0
0000
0000
0000
0000
0E00
0E00
0E00
ENDCHAR
STARTCHAR 1ECE
ENCODING 7886
SWIDTH 720 0
DWIDTH 24 0
BBX 22 32 3 0
BITMAP
000780
001FC0
0019C0
0000C0
000180
000700
000000
000000
001F00
00FFC0
03FFF0
07C0F0
0F0078
1E0038
1C003C
38001C
38001C
70001C
70001C
70001C
70001C
70003C
F00038
F00038
700078
700070
7000E0
7801E0
3C03C0
3FBF80
1FFE00
07F800
ENDCHAR
STARTCHAR 1ECF
ENCODING 7887
SWIDTH 570 0
DWIDTH 19 0
BBX 16 26 3 0
BITMAP
0078
00FC
018C
000C
0018
0070
0000
0000
01F8
07FC
1FBE
3C0F
3807
7007
E007
E003
E007
E007
E007
E007
E00E
E01E
F03C
78F8
3FF0
1FC0
ENDCHAR
STARTCHAR 1ED0
ENCODING 7888
SWIDTH 720 0
DWIDTH 24 0
BBX 25 36 3 0
BITMAP
00000380
00000300
00000700
00000E00
00001C00
00001800
000F0000
001F8000
0039C000
0070E000
00000000
00000000
001F0000
00FFC000
03FFF000
07C0F000
0F007800
1E003800
1C003C00
38001C00
38001C00
70001C00
70001C00
70001C00
70001C00
70003C00
F0003800
F0003800
70007800
70007000
7000E000
7801E000
3C03C000
3FBF8000
1FFE0000
07F80000
ENDCHAR
STARTCHAR 1ED1
ENCODING 7889
SWIDTH 570 0
DWIDTH 19 0
BBX 21 30 3 0
BITMAP
000038
000038
000070
0000E0
0001C0
007180
00F800
01D800
039C00
070E00
000000
000000
01F800
07FC00
1FBE00
3C0F00
380700
700700
E00700
E00300
E00700
E00700
E00700
E00700
E00E00
E01E00
F03C00
78F800
3FF000
1FC000
ENDCHAR
STARTCHAR 1ED2
ENCODING 7890
SWIDTH 720 0
DWIDTH 24 0
BBX 22 36 3 0
BITMAP
0001C0
0000E0
0000E0
000060
000070
000030
000F00
001F80
0039C0
0070C0
008020
000000
001F00
00FFC0
03FFF0
07C0F0
0F0078
1E0038
1C003C
38001C
38001C
70001C
70001C
70001C
70001C
70003C
F00038
F00038
700078
700070
7000E0
7801E0
3C03C0
3FBF80
1FFE00
07F800
ENDCHAR
STARTCHAR 1ED3
ENCODING 7891
SWIDTH 570 0
DWIDTH 19 0
BBX 17 30 3 0
BITMAP
000E00
000E00
000600
000700
000300
007380
00F800
01D800
039C00
070E00
000000
000000
01F800
07FC00
1FBE00
3C0F00
380700
700700
E00700
E00300
E00700
E00700
E00700
E00700
E00E00
E01E00
F03C00
78F800
3FF000
1FC000
ENDCHAR
STARTCHAR 1ED4
ENCODING 7892
SWIDTH 720 0
DWIDTH 24 0
BBX 23 36 3 0
BITMAP
00003C
00007E
0000E6
000006
00000C
000018
000F00
001F80
0039C0
0070E0
000000
000000
001F00
00FFC0
03FFF0
07C0F0
0F0078
1E0038
1C003C
38001C
38001C
70001C
70001C
70001C
70001C
70003C
F00038
F00038
700078
700070
7000E0
7801E0
3C03C0
3FBF80
1FFE00
07F800
ENDCHAR
STARTCHAR 1ED5
ENCODING 7893
SWIDTH 570 0
DWIDTH 19 0
BBX 20 30 3 0
BITMAP
0003E0
0007F0
000E70
000060
0000C0
007180
00F800
01D800
039C00
070E00
000000
000000
01F800
07FC00
1FBE00
3C0F00
380700
700700
E00700
E00300
E00700
E00700
E00700
E00700
E00E00
E01E00
F03C00
78F800
3FF000
1FC000
ENDCHAR
STARTCHAR 1ED6
ENCODING 7894
SWIDTH 720 0
DWIDTH 24 0
BBX 22 35 3 0
BITMAP
003E30
007FE0
0061C0
000000
000000
000F00
001F80
0039C0
0070E0
000000
000000
001F00
00FFC0
03FFF0
07C0F0
0F0078
1E0038
1C003C
38001C
38001C
70001C
70001C
70001C
70001C
70003C
F00038
F00038
700078
700070
7000E0
7801E0
3C03C0
3FBF80
1FFE00
07F800
ENDCHAR
STARTCHAR 1ED7
ENCODING 7895
SWIDTH 570 0
DWIDTH 19 0
BBX 16 30 3 0
BITMAP
0001
03F3
037E
061C
0000
0070
00F8
01D8
039C
070E
0000
0000
01F8
07FC
1FBE
3C0F
3807
7007
E007
E003
E007
E007
E007
E007
E00E
E01E
F03C
78F8
3FF0
1FC0
ENDCHAR
STARTCHAR 1ED8
ENCODING 7896
SWIDTH 720 0
DWIDTH 24 0
BBX 22 37 3 -7
BITMAP
000F00
001F80
0039C0
0070E0
000000
000000
001F00
00FFC0
03FFF0
07C0F0
0F0078
1E0038
1C003C
38001C
38001C
70001C
70001C
70001C
70001C
70003C
F00038
F00038
700078
700070
7000E0
7801E0
3C03C0
3FBF80
1FFE00
07F800
000000
000000
000000
000000
01C000
03C000
01C000
ENDCHAR
STARTCHAR 1ED9
ENCODING 7897
SWIDTH 570 0
DWIDTH 19 0
BBX 16 32 3 -7
BITMAP
0070
00F8
01DC
039C
070E
0000
0000
01F8
07FC
1FBE
3C0F
3807
7007
E007
E003
E007
E007
E007
E007
E00E
E01E
F03C
78F8
3FF0
1FC0
0000
0000
0000
0000
0E00
0E00
0E00
ENDCHAR
STARTCHAR 1EDA
ENCODING 7898
SWIDTH 720 0
DWIDTH 24 0
BBX 22 32 3 0
BITMAP
000070
0000E0
0001C0
000180
000300
000700
00000C
00000C
001F3C
00FFF8
03FFF0
07C0F0
0F0078
1E0038
1C003C
38001C
38001C
70001C
70001C
70001C
70001C
70003C
F00038
F00038
700078
700070
7000E0
7801E0
3C03C0
3FBF80
1FFE00
07F800
ENDCHAR
STARTCHAR 1EDB
ENCODING 7899
SWIDTH 570 0
DWIDTH 19 0
BBX 19 26 3 0
BITMAP
000700
000E00
001C00
001800
003000
0070E0
0000C0
0000C0
01FFC0
07FF80
1FBE00
3C0F00
380700
700700
E00700
E00300
E00700
E00700
E00700
E00700
E00E00
E01E00
F03C00
78F800
3FF000
1FC000
ENDCHAR
STARTCHAR 1EDC
ENCODING 7900
SWIDTH 720 0
DWIDTH 24 0
BBX 22 32 3 0
BITMAP
007800
003800
003800
001C00
001C00
000C00
00000C
00000C
001F3C
00FFF8
03FFF0
07C0F0
0F0078
1E0038
1C003C
38001C
38001C
70001C
70001C
70001C
70001C
70003C
F00038
F00038
700078
700070
7000E0
7801E0
3C03C0
3FBF80
1FFE00
07F800
ENDCHAR
STARTCHAR 1EDD
ENCODING 7901
SWIDTH 570 0
DWIDTH 19 0
BBX 19 26 3 0
BITMAP
038000
038000
01C000
01C000
00C000
00E0E0
0000C0
0000C0
01FFC0
07FF80
1FBE00
3C0F00
380700
700700
E00700
E00300
E00700
E00700
E00700
E00700
E00E00
E01E00
F03C00
78F800
3FF000
1FC000
ENDCHAR
STARTCHAR 1EDE
ENCODING 7902
SWIDTH 720 0
DWIDTH 24 0
BBX 22 32 3 0
BITMAP
000780
001FC0
0019C0
0000C0
000180
000700
00000C
00000C
001F3C
00FFF8
03FFF0
07C0F0
0F0078
1E0038
1C003C
38001C
38001C
70001C
70001C
70001C
70001C
70003C
F00038
F00038
700078
700070
7000E0
7801E0
3C03C0
3FBF80
1FFE00
07F800
ENDCHAR
STARTCHAR 1EDF
ENCODING 7903
SWIDTH 570 0
DWIDTH 19 0
BBX 19 26 3 0
BITMAP
007800
00FC00
018C00
000C00
001800
0070E0
0000C0
0000C0
01FFC0
07FF80
1FBE00
3C0F00
380700
700700
E00700
E00300
E00700
E00700
E00700
E00700
E00E00
E01E00
F03C00
78F800
3FF000
1FC000
ENDCHAR
STARTCHAR 1EE0
ENCODING 7904
SWIDTH 720 0
DWIDTH 24 0
BBX 22 30 3 0
BITMAP
003C30
007FE0
0063C0
000000
00000C
00000C
001F3C
00FFF8
03FFF0
07C0F0
0F0078
1E0038
1C003C
38001C
38001C
70001C
70001C
70001C
70001C
70003C
F00038
F00038
700078
700070
7000E0
7801E0
3C03C0
3FBF80
1FFE00
07F800
ENDCHAR
STARTCHAR 1EE1
ENCODING 7905
SWIDTH 570 0
DWIDTH 19 0
BBX 19 24 3 0
BITMAP
03E300
07FE00
063C00
0000E0
0000C0
0000C0
01FFC0
07FF80
1FBE00
3C0F00
380700
700700
E00700
E00300
E00700
E00700
E00700
E00700
E00E00
E01E00
F03C00
78F800
3FF000
1FC000
ENDCHAR
STARTCHAR 1EE2
ENCODING 7906
SWIDTH 720 0
DWIDTH 24 0
BBX 22 33 3 -7
BITMAP
00000C
00000C
001F3C
00FFF8
03FFF0
07C0F0
0F0078
1E0038
1C003C
38001C
38001C
70001C
70001C
70001C
70001C
70003C
F00038
F00038
700078
700070
7000E0
7801E0
3C03C0
3FBF80
1FFE00
07F800
000000
000000
000000
000000
01C000
03C000
01C000
ENDCHAR
STARTCHAR 1EE3
ENCODING 7907
SWIDTH 570 0
DWIDTH 19 0
BBX 19 28 3 -7
BITMAP
0000E0
0000C0
0000C0
01FFC0
07FF80
1FBE00
3C0F00
380700
700700
E00700
E00300
E00700
E00700
E00700
E00700
E00E00
E01E00
F03C00
78F800
3FF000
1FC000
000000
000000
000000
000000
0E0000
0E0000
0E0000
ENDCHAR
STARTCHAR 1EE4
ENCODING 7908
SWIDTH 660 0
DWIDTH 22 0
BBX 20 30 4 -7
BITMAP
380030
380070
380070
300070
700070
700070
700060
7000E0
6000E0
E000E0
E000E0
E000E0
E000C0
E001C0
E001C0
E001C0
E00380
E00380
E00700
F00F00
7FFE00
3FF800
1FF000
000000
000000
000000
000000
070000
070000
070000
ENDCHAR
STARTCHAR 1EE5
ENCODING 7909
SWIDTH 600 0
DWIDTH 20 0
BBX 18 25 3 -7
BITMAP
3801C0
3801C0
380380
380380
380380
300380
700380
700380
700700
700700
700700
600700
E00F00
F00E00
701E00
7C7E00
3FEE00
1F8E00
000000
000000
000000
000000
0E0000
0F0000
0E0000
ENDCHAR
STARTCHAR 1EE6
ENCODING 7910
SWIDTH 660 0
DWIDTH 22 0
BBX 20 32 4 0
BITMAP
001E00
003F00
006300
000300
000600
001C00
000000
000000
000000
380030
380070
380070
300070
700070
700070
700060
7000E0
6000E0
E000E0
E000E0
E000E0
E000C0
E001C0
E001C0
E001C0
E00380
E00380
E00700
F00F00
7FFE00
3FF800
1FF000
ENDCHAR
STARTCHAR 1EE7
ENCODING 7911
SWIDTH 600 0
DWIDTH 20 0
BBX 18 26 3 0
BITMAP
007800
00FC00
018C00
000C00
001800
007000
000000
000000
3801C0
3801C0
380380
380380
380380
300380
700380
700380
700700
700700
700700
600700
E00F00
F00E00
701E00
7C7E00
3FEE00
1F8E00
ENDCHAR
STARTCHAR 1EE8
ENCODING 7912
SWIDTH 660 0
DWIDTH 22 0
BBX 25 32 4 0
BITMAP
0001C000
00038000
00070000
00060000
000E0000
001C0000
00000380
00000300
00000700
38003E00
38007000
38007000
30007000
70007000
70007000
70006000
7000E000
6000E000
E000E000
E000E000
E000E000
E000C000
E001C000
E001C000
E001C000
E0038000
E0038000
E0070000
F00F0000
7FFE0000
3FF80000
1FF00000
ENDCHAR
STARTCHAR 1EE9
ENCODING 7913
SWIDTH 600 0
DWIDTH 20 0
BBX 22 26 3 0
BITMAP
000700
000E00
001C00
001800
003800
00700C
00001C
000018
3801F8
3801F0
380380
380380
380380
300380
700380
700380
700700
700700
700700
600700
E00F00
F00E00
701E00
7C7E00
3FEE00
1F8E00
ENDCHAR
STARTCHAR 1EEA
ENCODING 7914
SWIDTH 660 0
DWIDTH 22 0
BBX 25 32 4 0
BITMAP
00E00000
00E00000
00600000
00700000
00300000
00380000
00000380
00000300
00000700
38003E00
38007000
38007000
30007000
70007000
70007000
70006000
7000E000
6000E000
E000E000
E000E000
E000E000
E000C000
E001C000
E001C000
E001C000
E0038000
E0038000
E0070000
F00F0000
7FFE0000
3FF80000
1FF00000
ENDCHAR
STARTCHAR 1EEB
ENCODING 7915
SWIDTH 600 0
DWIDTH 20 0
BBX 22 26 3 0
BITMAP
070000
070000
038000
038000
018000
01C00C
00001C
000018
3801F8
3801F0
380380
380380
380380
300380
700380
700380
700700
700700
700700
600700
E00F00
F00E00
701E00
7C7E00
3FEE00
1F8E00
ENDCHAR
STARTCHAR 1EEC
ENCODING 7916
SWIDTH 660 0
DWIDTH 22 0
BBX 25 32 4 0
BITMAP
001E0000
003F0000
00630000
00030000
00060000
001C0000
00000380
00000300
00000700
38003E00
38007000
38007000
30007000
70007000
70007000
70006000
7000E000
6000E000
E000E000
E000E000
E000E000
E000C000
E001C000
E001C000
E001C000
E0038000
E0038000
E0070000
F00F0000
7FFE0000
3FF80000
1FF00000
ENDCHAR
STARTCHAR 1EED
ENCODING 7917
SWIDTH 600 0
DWIDTH 20 0
BBX 22 26 3 0
BITMAP
007800
00FC00
018C00
000C00
001800
00700C
00001C
000018
3801F8
3801F0
380380
380380
380380
300380
700380
700380
700700
700700
700700
600700
E00F00
F00E00
701E00
7C7E00
3FEE00
1F8E00
ENDCHAR
STARTCHAR 1EEE
ENCODING 7918
SWIDTH 660 0
DWIDTH 22 0
BBX 25 30 4 0
BITMAP
00F8C000
01FF8000
018F0000
00000000
00000380
00000300
00000700
38003E00
38007000
38007000
30007000
70007000
70007000
70006000
7000E000
6000E000
E000E000
E000E000
E000E000
E000C000
E001C000
E001C000
E001C000
E0038000
E0038000
E0070000
F00F0000
7FFE0000
3FF80000
1FF00000
ENDCHAR
STARTCHAR 1EEF
ENCODING 7919
SWIDTH 600 0
DWIDTH 20 0
BBX 22 24 3 0
BITMAP
03E300
07FE00
061C00
00000C
00001C
000018
3801F8
3801F0
380380
380380
380380
300380
700380
700380
700700
700700
700700
600700
E00F00
F00E00
701E00
7C7E00
3FEE00
1F8E00
ENDCHAR
STARTCHAR 1EF0
ENCODING 7920
SWIDTH 660 0
DWIDTH 22 0
BBX 25 33 4 -7
BITMAP
00000380
00000300
00000700
38003E00
38007000
38007000
30007000
70007000
70007000
70006000
7000E000
6000E000
E000E000
E000E000
E000E000
E000C000
E001C000
E001C000
E001C000
E0038000
E0038000
E0070000
F00F0000
7FFE0000
3FF80000
1FF00000
00000000
00000000
00000000
00000000
07000000
07000000
07000000
ENDCHAR
STARTCHAR 1EF1
ENCODING 7921
SWIDTH 600 0
DWIDTH 20 0
BBX 22 28 3 -7
BITMAP
00000C
00001C
000018
3801F8
3801F0
380380
380380
380380
300380
700380
700380
700700
700700
700700
600700
E00F00
F00E00
701E00
7C7E00
3FEE00
1F8E00
000000
000000
000000
000000
1C0000
1E0000
1C0000
ENDCHAR
STARTCHAR 1EF2
ENCODING 7922
SWIDTH 600 0
DWIDTH 20 0
BBX 18 32 5 0
BITMAP
070000
038000
038000
01C000
01C000
00C000
000000
000000
000000
F003C0
700380
700700
700F00
380E00
381C00
383C00
1C3800
1C7000
1CF000
0EE000
0FC000
0F8000
078000
070000
070000
070000
070000
0E0000
0E0000
0E0000
0E0000
0E0000
ENDCHAR
STARTCHAR 1EF3
ENCODING 7923
SWIDTH 480 0
DWIDTH 16 0
BBX 19 33 0 -7
BITMAP
00E000
00E000
006000
007000
003000
003000
000000
000000
1C00E0
1C00E0
0E01C0
0E01C0
0E0380
0E0380
060700
070600
070E00
071C00
071C00
033800
03B000
03F000
03E000
01E000
01C000
01C000
038000
030000
070000
0E0000
BC0000
F80000
F00000
ENDCHAR
STARTCHAR 1EF4
ENCODING 7924
SWIDTH 600 0
DWIDTH 20 0
BBX 18 30 5 -7
BITMAP
F003C0
700380
700700
700F00
380E00
381C00
383C00
1C3800
1C7000
1CF000
0EE000
0FC000
0F8000
078000
070000
070000
070000
070000
0E0000
0E0000
0E0000
0E0000
0E0000
000000
000000
000000
000000
1C0000
3C0000
3C0000
ENDCHAR
STARTCHAR 1EF5
ENCODING 7925
SWIDTH 480 0
DWIDTH 16 0
BBX 19 25 0 -7
BITMAP
1C00E0
1C00E0
0E01C0
0E01C0
0E0380
0E0380
060700
070600
070E00
071C00
071C00
033800
03B000
03F000
03E000
01E000
01C000
01C000
038000
030000
070000
0E0000
BC1C00
F83C00
F03C00
ENDCHAR
STARTCHAR 1EF6
ENCODING 7926
SWIDTH 600 0
DWIDTH 20 0
BBX 18 32 5 0
BITMAP
007000
01F800
019C00
001C00
001800
007000
000000
000000
000000
F003C0
700380
700700
700F00
380E00
381C00
383C00
1C3800
1C7000
1CF000
0EE000
0FC000
0F8000
078000
070000
070000
070000
070000
0E0000
0E0000
0E0000
0E0000
0E0000
ENDCHAR
STARTCHAR 1EF7
ENCODING 7927
SWIDTH 480 0
DWIDTH 16 0
BBX 19 33 0 -7
BITMAP
003E00
007F00
006300
000700
000E00
001800
000000
000000
1C00E0
1C00E0
0E01C0
0E01C0
0E0380
0E0380
060700
070600
070E00
071C00
071C00
033800
03B000
03F000
03E000
01E000
01C000
01C000
038000
030000
070000
0E0000
BC0000
F80000
F00000
ENDCHAR
STARTCHAR 1EF8
ENCODING 7928
SWIDTH 600 0
DWIDTH 20 0
BBX 18 30 5 0
BITMAP
03C600
07FE00
063C00
000000
000000
000000
000000
F003C0
700380
700700
700F00
380E00
381C00
383C00
1C3800
1C7000
1CF000
0EE000
0FC000
0F8000
078000
070000
070000
070000
070000
0E0000
0E0000
0E0000
0E0000
0E0000
ENDCHAR
STARTCHAR 1EF9
ENCODING 7929
SWIDTH 480 0
DWIDTH 16 0
BBX 19 31 0 -7
BITMAP
00F980
01FF80
018F00
000000
000000
000000
1C00E0
1C00E0
0E01C0
0E01C0
0E0380
0E0380
060700
070600
070E00
071C00
071C00
033800
03B000
03F000
03E000
01E000
01C000
01C000
038000
030000
070000
0E0000
BC0000
F80000
F00000
ENDCHAR
STARTCHAR 2013
ENCODING 8211
SWIDTH 630 0
DWIDTH 21 0
BBX 15 3 5 9
BITMAP
7FFE
7FFE
FFFE
ENDCHAR
STARTCHAR 2014
ENCODING 8212
SWIDTH 750 0
DWIDTH 25 0
BBX 19 3 5 9
BITMAP
7FFFE0
7FFFE0
FFFFC0
ENDCHAR
STARTCHAR 2018
ENCODING 8216
SWIDTH 270 0
DWIDTH 9 0
BBX 5 9 4 16
BITMAP
08
18
20
40
40
F0
F8
F0
60
ENDCHAR
STARTCHAR 2019
ENCODING 8217
SWIDTH 240 0
DWIDTH 8 0
BBX 5 9 2 16
BITMAP
30
78
78
38
18
10
30
60
80
ENDCHAR
STARTCHAR 201A
ENCODING 8218
SWIDTH 270 0
DWIDTH 9 0
BBX 5 8 2 -5
BITMAP
78
78
78
18
18
10
20
C0
ENDCHAR
STARTCHAR 201C
ENCODING 8220
SWIDTH 540 0
DWIDTH 18 0
BBX 11 9 6 16
BITMAP
1020
30E0
4080
C100
C100
E3C0
F3E0
F3C0
6180
ENDCHAR
STARTCHAR 201D
ENCODING 8221
SWIDTH 570 0
DWIDTH 19 0
BBX 11 9 6 16
BITMAP
60C0
F1E0
F1E0
71E0
3060
3040
60C0
C180
0200
ENDCHAR
STARTCHAR 201E
ENCODING 8222
SWIDTH 510 0
DWIDTH 17 0
BBX 12 8 3 -5
BITMAP
F0E0
F1F0
F1E0
3060
3060
2060
40C0
8180
ENDCHAR
STARTCHAR 2020
ENCODING 8224
SWIDTH 570 0
DWIDTH 19 0
BBX 13 31 6 -8
BITMAP
0380
0380
0300
0300
0300
FFF8
FFF8
FFF8
0600
0600
0E00
0E00
0E00
0E00
0C00
0C00
1C00
1C00
1C00
1C00
1800
1800
3800
3800
3800
3800
3000
3000
7000
7000
7000
ENDCHAR
STARTCHAR 2021
ENCODING 8225
SWIDTH 570 0
DWIDTH 19 0
BBX 16 31 3 -8
BITMAP
0070
0070
0060
0060
0060
1FFF
1FFF
1FFF
00C0
00C0
01C0
01C0
01C0
01C0
0180
0180
0380
0380
0380
0300
0300
0300
FFF8
FFF8
FFF8
0600
0600
0600
0E00
0E00
0E00
ENDCHAR
STARTCHAR 2022
ENCODING 8226
SWIDTH 390 0
DWIDTH 13 0
BBX 7 7 5 9
BITMAP
38
7C
FE
FE
FC
F8
70
ENDCHAR
STARTCHAR 2026
ENCODING 8230
SWIDTH 780 0
DWIDTH 26 0
BBX 21 4 3 0
BITMAP
002020
F07078
F0F078
E07070
ENDCHAR
STARTCHAR 2030
ENCODING 8240
SWIDTH 1170 0
DWIDTH 39 0
BBX 35 24 4 0
BITMAP
0E00000000
3F80300000
7180700000
6180600000
E180C00000
C181C00000
C183800000
E303000000
7F07000000
3C0E000000
000C000000
001C000000
0038000000
0030000000
0070000000
00E07C07C0
00C0EE0EE0
01C1861860
0381861860
0303863860
0603063860
0E038E38E0
1C019C1DC0
1801F80F80
ENDCHAR
STARTCHAR 2039
ENCODING 8249
SWIDTH 360 0
DWIDTH 12 0
BBX 11 14 3 4
BITMAP
00E0
01C0
0380
0700
1C00
3800
7000
E000
7000
3800
3C00
1C00
0E00
0700
ENDCHAR
STARTCHAR 203A
ENCODING 8250
SWIDTH 360 0
DWIDTH 12 0
BBX 11 14 2 4
BITMAP
3800
1C00
0E00
0700
0700
0380
01C0
00E0
03C0
0700
0E00
1C00
3800
F000
ENDCHAR
STARTCHAR 2044
ENCODING 8260
SWIDTH 450 0
DWIDTH 15 0
BBX 20 23 0 0
BITMAP
000070
0000E0
0001C0
000380
000300
000700
000E00
001C00
001800
003000
007000
00E000
01C000
018000
038000
070000
0E0000
0C0000
1C0000
380000
700000
600000
C00000
ENDCHAR
STARTCHAR 2070
ENCODING 8304
SWIDTH 330 0
DWIDTH 11 0
BBX 10 12 4 12
BITMAP
1F00
3980
7180
60C0
E0C0
C1C0
C180
C180
C180
C300
E700
7E00
ENDCHAR
STARTCHAR 2074
ENCODING 8308
SWIDTH 330 0
DWIDTH 11 0
BBX 9 12 4 13
BITMAP
0380
0700
0F00
1B00
3300
6300
4300
C200
FF80
0600
0600
0600
ENDCHAR
STARTCHAR 2075
ENCODING 8309
SWIDTH 300 0
DWIDTH 10 0
BBX 9 12 4 13
BITMAP
7F80
6000
6000
6000
5F00
E300
C180
0180
0300
C300
FE00
7C00
ENDCHAR
STARTCHAR 2076
ENCODING 8310
SWIDTH 300 0
DWIDTH 10 0
BBX 8 12 4 13
BITMAP
06
0C
18
30
6E
7F
C3
C1
C1
C3
E6
7C
ENDCHAR
STARTCHAR 2077
ENCODING 8311
SWIDTH 270 0
DWIDTH 9 0
BBX 8 12 5 13
BITMAP
FF
03
02
06
0C
0C
18
30
30
60
40
C0
ENDCHAR
STARTCHAR 2078
ENCODING 8312
SWIDTH 300 0
DWIDTH 10 0
BBX 9 13 4 12
BITMAP
1F00
3180
6180
6180
6180
3F00
7700
C180
C180
C380
C700
FE00
1000
ENDCHAR
STARTCHAR 2079
ENCODING 8313
SWIDTH 300 0
DWIDTH 10 0
BBX 9 12 4 13
BITMAP
1F00
3380
6180
4180
C180
6180
7F00
3B00
0600
0C00
1800
3000
ENDCHAR
STARTCHAR 2080
ENCODING 8320
SWIDTH 330 0
DWIDTH 11 0
BBX 10 12 0 -7
BITMAP
1F80
39C0
30C0
60C0
60C0
60C0
E0C0
C1C0
C180
6380
6700
3E00
ENDCHAR
STARTCHAR 2081
ENCODING 8321
SWIDTH 240 0
DWIDTH 8 0
BBX 6 12 0 -8
BITMAP
1C
3C
6C
48
18
18
18
18
18
10
30
FC
ENDCHAR
STARTCHAR 2082
ENCODING 8322
SWIDTH 300 0
DWIDTH 10 0
BBX 9 12 0 -8
BITMAP
1F00
3380
6180
6180
0180
0300
0600
0C00
3800
7000
C000
FF00
ENDCHAR
STARTCHAR 2083
ENCODING 8323
SWIDTH 300 0
DWIDTH 10 0
BBX 10 13 0 -8
BITMAP
0400
1F80
31C0
60C0
00C0
0180
0F00
0F00
0180
0180
C180
F700
7E00
ENDCHAR
STARTCHAR 2084
ENCODING 8324
SWIDTH 330 0
DWIDTH 11 0
BBX 9 12 0 -8
BITMAP
0380
0780
0580
0D80
1B00
3300
6300
C300
FF80
0200
0600
0600
ENDCHAR
STARTCHAR 2085
ENCODING 8325
SWIDTH 300 0
DWIDTH 10 0
BBX 10 12 0 -8
BITMAP
3FC0
3F80
6000
6000
6F00
7F80
6180
0180
0180
C300
E700
7E00
ENDCHAR
STARTCHAR 2086
ENCODING 8326
SWIDTH 300 0
DWIDTH 10 0
BBX 9 12 0 -8
BITMAP
0600
0C00
1800
1000
3E00
7F00
6180
C180
C180
C100
E700
7E00
ENDCHAR
STARTCHAR 2087
ENCODING 8327
SWIDTH 270 0
DWIDTH 9 0
BBX 9 12 1 -8
BITMAP
FF80
FF00
0300
0600
0600
0C00
0C00
1800
3000
3000
6000
C000
ENDCHAR
STARTCHAR 2088
ENCODING 8328
SWIDTH 300 0
DWIDTH 10 0
BBX 10 13 0 -8
BITMAP
0200
1F80
31C0
20C0
60C0
3180
3F00
7380
4180
C180
C180
E300
7E00
ENDCHAR
STARTCHAR 2089
ENCODING 8329
SWIDTH 300 0
DWIDTH 10 0
BBX 9 12 1 -8
BITMAP
3F00
7300
C180
C180
C180
C300
FF00
7E00
0C00
0C00
1800
3000
ENDCHAR
STARTCHAR 20AB
ENCODING 8363
SWIDTH 570 0
DWIDTH 19 0
BBX 20 27 3 0
BITMAP
0000E0
0000E0
001FF0
001FF0
0001C0
0001C0
03F1C0
0FF9C0
1E1D80
3C0780
780780
700380
700380
E00380
E00700
E00700
F00700
700F00
783F00
7FF700
3FEE00
070000
000000
000000
000000
FFFE00
FFFE00
ENDCHAR
STARTCHAR 20AC
ENCODING 8364
SWIDTH 690 0
DWIDTH 23 0
BBX 23 23 2 0
BITMAP
001FC0
007FF0
00FDF8
01E03C
03C01C
07801C
07000C
0F000E
7FFC00
7FFC00
1C0000
1C0000
1C0000
FFF800
FFF800
1C0000
1C0038
1E0070
0E00F0
0F01E0
07EFC0
03FF80
01FE00
ENDCHAR
STARTCHAR 2122
ENCODING 8482
SWIDTH 360 0
DWIDTH 12 0
BBX 11 5 5 18
BITMAP
F6E0
46E0
4FC0
4D40
4840
ENDCHAR
STARTCHAR 215B
ENCODING 8539
SWIDTH 870 0
DWIDTH 29 0
BBX 27 23 3 0
BITMAP
0E000700
3C000E00
3C001C00
2C001800
0C003800
0C007000
0C00E000
1800C000
18018000
7E038000
FE070000
000E0780
000C0FC0
001C18E0
00381860
007018C0
00601F80
00E01F80
01C030C0
038030C0
030070C0
06003F80
0E001F00
ENDCHAR
STARTCHAR 215C
ENCODING 8540
SWIDTH 840 0
DWIDTH 28 0
BBX 24 23 4 0
BITMAP
1F001C
338018
618030
018070
0300E0
0E01C0
070180
030380
C30700
E70E00
FE0C00
381C1E
00387F
007063
0060C3
00C063
01C07E
03807E
0700C3
060183
0E0187
1C01FE
3800FC
ENDCHAR
STARTCHAR 215D
ENCODING 8541
SWIDTH 870 0
DWIDTH 29 0
BBX 26 23 4 0
BITMAP
3F800C00
60001C00
60003800
64007000
5F006000
E300E000
0301C000
03038000
C3030000
FE060000
7C0E0000
001C0F00
00381F80
003031C0
007030C0
00E03180
01C03F00
01803F00
03806180
07006180
0E00E180
0C007F00
18003E00
ENDCHAR
STARTCHAR 215E
ENCODING 8542
SWIDTH 900 0
DWIDTH 30 0
BBX 25 23 5 0
BITMAP
FF001800
FF003800
06007000
0600E000
0C00C000
18018000
18038000
30070000
70060000
600C0000
C01C0000
00380E00
00703F80
00607180
00E06180
01C06380
03803F00
03007F00
0600C300
0E00C300
1C00C300
1800FF00
30007C00
ENDCHAR
STARTCHAR 2212
ENCODING 8722
SWIDTH 600 0
DWIDTH 20 0
BBX 14 3 5 9
BITMAP
FFFC
FFF8
FFF8
ENDCHAR
STARTCHAR 2215
ENCODING 8725
SWIDTH 510 0
DWIDTH 17 0
BBX 18 23 2 0
BITMAP
0001C0
000380
000700
000700
000E00
001C00
001C00
003800
007000
007000
00E000
01C000
01C000
038000
070000
070000
0E0000
1C0000
1C0000
380000
700000
700000
E00000
ENDCHAR
STARTCHAR 2248
ENCODING 8776
SWIDTH 540 0
DWIDTH 18 0
BBX 14 11 4 5
BITMAP
0E0C
3F9C
31F8
60E0
0000
0000
0000
1C18
7F38
67F0
C1C0
ENDCHAR
STARTCHAR 2260
ENCODING 8800
SWIDTH 720 0
DWIDTH 24 0
BBX 17 20 5 0
BITMAP
000380
000300
000700
000E00
001C00
3FFF80
3FFF80
007000
00E000
00C000
018000
038000
7FFF00
FFFF00
0C0000
1C0000
380000
300000
600000
E00000
ENDCHAR
STARTCHAR 2264
ENCODING 8804
SWIDTH 600 0
DWIDTH 20 0
BBX 17 20 3 0
BITMAP
000080
000780
001F80
007C00
01F000
07C000
0F0000
1E0000
1F0000
07C000
01F000
007C00
003E00
000E00
000000
000000
000000
000000
7FFE00
FFFE00
ENDCHAR
STARTCHAR 2265
ENCODING 8805
SWIDTH 600 0
DWIDTH 20 0
BBX 16 20 3 0
BITMAP
0400
0F00
0F80
03E0
00F8
007C
001F
0007
003E
00F8
03E0
0F80
1E00
3800
2000
0000
0000
0000
7FFE
FFFE
ENDCHAR
ENDFONT
